<?xml version="1.0" encoding="utf-8" standalone="no"?>
<!DOCTYPE svg PUBLIC "-//W3C//DTD SVG 1.1//EN"
  "http://www.w3.org/Graphics/SVG/1.1/DTD/svg11.dtd">
<svg xmlns:xlink="http://www.w3.org/1999/xlink" width="460.8pt" height="345.6pt" viewBox="0 0 460.8 345.6" xmlns="http://www.w3.org/2000/svg" version="1.1">
 <metadata>
  <rdf:RDF xmlns:dc="http://purl.org/dc/elements/1.1/" xmlns:cc="http://creativecommons.org/ns#" xmlns:rdf="http://www.w3.org/1999/02/22-rdf-syntax-ns#">
   <cc:Work>
    <dc:type rdf:resource="http://purl.org/dc/dcmitype/StillImage"/>
    <dc:date>2024-06-07T10:04:47.752670</dc:date>
    <dc:format>image/svg+xml</dc:format>
    <dc:creator>
     <cc:Agent>
      <dc:title>Matplotlib v3.8.4, https://matplotlib.org/</dc:title>
     </cc:Agent>
    </dc:creator>
   </cc:Work>
  </rdf:RDF>
 </metadata>
 <defs>
  <style type="text/css">*{stroke-linejoin: round; stroke-linecap: butt}</style>
 </defs>
 <g id="figure_1">
  <g id="patch_1">
   <path d="M 0 345.6 
L 460.8 345.6 
L 460.8 0 
L 0 0 
z
" style="fill: #ffffff"/>
  </g>
  <g id="axes_1">
   <g id="patch_2">
    <path d="M 57.6 307.584 
L 414.72 307.584 
L 414.72 41.472 
L 57.6 41.472 
z
" style="fill: #ffffff"/>
   </g>
   <g id="PolyCollection_1">
    <defs>
     <path id="m5013c0de24" d="M 117.349016 -50.112 
L 116.890984 -50.112 
L 116.835081 -52.050499 
L 116.769828 -53.988997 
L 116.694813 -55.927496 
L 116.6099 -57.865994 
L 116.515275 -59.804493 
L 116.411485 -61.742991 
L 116.299451 -63.68149 
L 116.180452 -65.619988 
L 116.056085 -67.558487 
L 115.928178 -69.496985 
L 115.798688 -71.435484 
L 115.669567 -73.373982 
L 115.542605 -75.312481 
L 115.41928 -77.250979 
L 115.300606 -79.189478 
L 115.187014 -81.127976 
L 115.078257 -83.066475 
L 114.973372 -85.004973 
L 114.870683 -86.943472 
L 114.767855 -88.88197 
L 114.661998 -90.820469 
L 114.549784 -92.758967 
L 114.427592 -94.697466 
L 114.291627 -96.635964 
L 114.138011 -98.574463 
L 113.962828 -100.512961 
L 113.762096 -102.45146 
L 113.531678 -104.389958 
L 113.267145 -106.328457 
L 112.963591 -108.266955 
L 112.615461 -110.205454 
L 112.216421 -112.143952 
L 111.759318 -114.082451 
L 111.236283 -116.020949 
L 110.63901 -117.959448 
L 109.959246 -119.897946 
L 109.189478 -121.836445 
L 108.323808 -123.774943 
L 107.358961 -125.713442 
L 106.295339 -127.65194 
L 105.138035 -129.590439 
L 103.897673 -131.528937 
L 102.590983 -133.467436 
L 101.240975 -135.405934 
L 99.876654 -137.344433 
L 98.532215 -139.282931 
L 97.245728 -141.22143 
L 96.05735 -143.159928 
L 95.007184 -145.098427 
L 94.132899 -147.036925 
L 93.467314 -148.975424 
L 93.036115 -150.913922 
L 92.855896 -152.852421 
L 92.932689 -154.79092 
L 93.261112 -156.729418 
L 93.824206 -158.667917 
L 94.593987 -160.606415 
L 95.532673 -162.544914 
L 96.59451 -164.483412 
L 97.72805 -166.421911 
L 98.878758 -168.360409 
L 99.991753 -170.298908 
L 101.014541 -172.237406 
L 101.899587 -174.175905 
L 102.606596 -176.114403 
L 103.104401 -178.052902 
L 103.372396 -179.9914 
L 103.401449 -181.929899 
L 103.194289 -183.868397 
L 102.765335 -185.806896 
L 102.140006 -187.745394 
L 101.35351 -189.683893 
L 100.449179 -191.622391 
L 99.476406 -193.56089 
L 98.488263 -195.499388 
L 97.538922 -197.437887 
L 96.680997 -199.376385 
L 95.962949 -201.314884 
L 95.42672 -203.253382 
L 95.105713 -205.191881 
L 95.02327 -207.130379 
L 95.191748 -209.068878 
L 95.612223 -211.007376 
L 96.274871 -212.945875 
L 97.159958 -214.884373 
L 98.239368 -216.822872 
L 99.478536 -218.76137 
L 100.838635 -220.699869 
L 102.278857 -222.638367 
L 103.758606 -224.576866 
L 105.239488 -226.515364 
L 106.686951 -228.453863 
L 108.07152 -230.392361 
L 109.369582 -232.33086 
L 110.56372 -234.269358 
L 111.642641 -236.207857 
L 112.600763 -238.146355 
L 113.437537 -240.084854 
L 114.156598 -242.023352 
L 120.083402 -242.023352 
L 120.083402 -242.023352 
L 120.802463 -240.084854 
L 121.639237 -238.146355 
L 122.597359 -236.207857 
L 123.67628 -234.269358 
L 124.870418 -232.33086 
L 126.16848 -230.392361 
L 127.553049 -228.453863 
L 129.000512 -226.515364 
L 130.481394 -224.576866 
L 131.961143 -222.638367 
L 133.401365 -220.699869 
L 134.761464 -218.76137 
L 136.000632 -216.822872 
L 137.080042 -214.884373 
L 137.965129 -212.945875 
L 138.627777 -211.007376 
L 139.048252 -209.068878 
L 139.21673 -207.130379 
L 139.134287 -205.191881 
L 138.81328 -203.253382 
L 138.277051 -201.314884 
L 137.559003 -199.376385 
L 136.701078 -197.437887 
L 135.751737 -195.499388 
L 134.763594 -193.56089 
L 133.790821 -191.622391 
L 132.88649 -189.683893 
L 132.099994 -187.745394 
L 131.474665 -185.806896 
L 131.045711 -183.868397 
L 130.838551 -181.929899 
L 130.867604 -179.9914 
L 131.135599 -178.052902 
L 131.633404 -176.114403 
L 132.340413 -174.175905 
L 133.225459 -172.237406 
L 134.248247 -170.298908 
L 135.361242 -168.360409 
L 136.51195 -166.421911 
L 137.64549 -164.483412 
L 138.707327 -162.544914 
L 139.646013 -160.606415 
L 140.415794 -158.667917 
L 140.978888 -156.729418 
L 141.307311 -154.79092 
L 141.384104 -152.852421 
L 141.203885 -150.913922 
L 140.772686 -148.975424 
L 140.107101 -147.036925 
L 139.232816 -145.098427 
L 138.18265 -143.159928 
L 136.994272 -141.22143 
L 135.707785 -139.282931 
L 134.363346 -137.344433 
L 132.999025 -135.405934 
L 131.649017 -133.467436 
L 130.342327 -131.528937 
L 129.101965 -129.590439 
L 127.944661 -127.65194 
L 126.881039 -125.713442 
L 125.916192 -123.774943 
L 125.050522 -121.836445 
L 124.280754 -119.897946 
L 123.60099 -117.959448 
L 123.003717 -116.020949 
L 122.480682 -114.082451 
L 122.023579 -112.143952 
L 121.624539 -110.205454 
L 121.276409 -108.266955 
L 120.972855 -106.328457 
L 120.708322 -104.389958 
L 120.477904 -102.45146 
L 120.277172 -100.512961 
L 120.101989 -98.574463 
L 119.948373 -96.635964 
L 119.812408 -94.697466 
L 119.690216 -92.758967 
L 119.578002 -90.820469 
L 119.472145 -88.88197 
L 119.369317 -86.943472 
L 119.266628 -85.004973 
L 119.161743 -83.066475 
L 119.052986 -81.127976 
L 118.939394 -79.189478 
L 118.82072 -77.250979 
L 118.697395 -75.312481 
L 118.570433 -73.373982 
L 118.441312 -71.435484 
L 118.311822 -69.496985 
L 118.183915 -67.558487 
L 118.059548 -65.619988 
L 117.940549 -63.68149 
L 117.828515 -61.742991 
L 117.724725 -59.804493 
L 117.6301 -57.865994 
L 117.545187 -55.927496 
L 117.470172 -53.988997 
L 117.404919 -52.050499 
L 117.349016 -50.112 
z
" style="stroke: #999999; stroke-width: 1.5"/>
    </defs>
    <g clip-path="url(#p3f6b2d9d6e)">
     <use xlink:href="#m5013c0de24" x="0" y="345.6" style="fill: #ffffff; stroke: #999999; stroke-width: 1.5"/>
    </g>
   </g>
   <g id="PolyCollection_2">
    <defs>
     <path id="m12ea222f1b" d="M 238.05863 -63.194971 
L 234.26137 -63.194971 
L 233.826688 -64.129304 
L 233.31149 -65.063638 
L 232.705625 -65.997972 
L 231.998769 -66.932305 
L 231.180701 -67.866639 
L 230.241638 -68.800972 
L 229.172619 -69.735306 
L 227.965939 -70.669639 
L 226.615618 -71.603973 
L 225.11789 -72.538306 
L 223.471694 -73.47264 
L 221.679154 -74.406973 
L 219.746005 -75.341307 
L 217.681956 -76.275641 
L 215.500954 -77.209974 
L 213.221325 -78.144308 
L 210.865771 -79.078641 
L 208.461201 -80.012975 
L 206.038388 -80.947308 
L 203.631442 -81.881642 
L 201.277111 -82.815975 
L 199.013919 -83.750309 
L 196.881165 -84.684642 
L 194.917817 -85.618976 
L 193.161346 -86.55331 
L 191.646538 -87.487643 
L 190.404342 -88.421977 
L 189.460808 -89.35631 
L 188.83615 -90.290644 
L 188.544 -91.224977 
L 188.590869 -92.159311 
L 188.975858 -93.093644 
L 189.690618 -94.027978 
L 190.719572 -94.962311 
L 192.040387 -95.896645 
L 193.624658 -96.830979 
L 195.438788 -97.765312 
L 197.445005 -98.699646 
L 199.602482 -99.633979 
L 201.868486 -100.568313 
L 204.199537 -101.502646 
L 206.552495 -102.43698 
L 208.885565 -103.371313 
L 211.159165 -104.305647 
L 213.336651 -105.239981 
L 215.384879 -106.174314 
L 217.274604 -107.108648 
L 218.980732 -108.042981 
L 220.48243 -108.977315 
L 221.763131 -109.911648 
L 222.810451 -110.845982 
L 223.616043 -111.780315 
L 224.175433 -112.714649 
L 224.487839 -113.648982 
L 224.556003 -114.583316 
L 224.386051 -115.51765 
L 223.987375 -116.451983 
L 223.37254 -117.386317 
L 222.557208 -118.32065 
L 221.560057 -119.254984 
L 220.402688 -120.189317 
L 219.109483 -121.123651 
L 217.707406 -122.057984 
L 216.225725 -122.992318 
L 214.695637 -123.926651 
L 213.149794 -124.860985 
L 211.621731 -125.795319 
L 210.14519 -126.729652 
L 208.753379 -127.663986 
L 207.478171 -128.598319 
L 206.349284 -129.532653 
L 205.393469 -130.466986 
L 204.633753 -131.40132 
L 204.08877 -132.335653 
L 203.772209 -133.269987 
L 203.692424 -134.20432 
L 203.852207 -135.138654 
L 204.248769 -136.072988 
L 204.873893 -137.007321 
L 205.714292 -137.941655 
L 206.752132 -138.875988 
L 207.965702 -139.810322 
L 209.330199 -140.744655 
L 210.818596 -141.678989 
L 212.402539 -142.613322 
L 214.053255 -143.547656 
L 215.742409 -144.481989 
L 217.44289 -145.416323 
L 219.1295 -146.350657 
L 220.77951 -147.28499 
L 222.373089 -148.219324 
L 223.893584 -149.153657 
L 225.32766 -150.087991 
L 226.665312 -151.022324 
L 227.899756 -151.956658 
L 229.02722 -152.890991 
L 230.04666 -153.825325 
L 230.959418 -154.759658 
L 231.768841 -155.693992 
L 240.551159 -155.693992 
L 240.551159 -155.693992 
L 241.360582 -154.759658 
L 242.27334 -153.825325 
L 243.29278 -152.890991 
L 244.420244 -151.956658 
L 245.654688 -151.022324 
L 246.99234 -150.087991 
L 248.426416 -149.153657 
L 249.946911 -148.219324 
L 251.54049 -147.28499 
L 253.1905 -146.350657 
L 254.87711 -145.416323 
L 256.577591 -144.481989 
L 258.266745 -143.547656 
L 259.917461 -142.613322 
L 261.501404 -141.678989 
L 262.989801 -140.744655 
L 264.354298 -139.810322 
L 265.567868 -138.875988 
L 266.605708 -137.941655 
L 267.446107 -137.007321 
L 268.071231 -136.072988 
L 268.467793 -135.138654 
L 268.627576 -134.20432 
L 268.547791 -133.269987 
L 268.23123 -132.335653 
L 267.686247 -131.40132 
L 266.926531 -130.466986 
L 265.970716 -129.532653 
L 264.841829 -128.598319 
L 263.566621 -127.663986 
L 262.17481 -126.729652 
L 260.698269 -125.795319 
L 259.170206 -124.860985 
L 257.624363 -123.926651 
L 256.094275 -122.992318 
L 254.612594 -122.057984 
L 253.210517 -121.123651 
L 251.917312 -120.189317 
L 250.759943 -119.254984 
L 249.762792 -118.32065 
L 248.94746 -117.386317 
L 248.332625 -116.451983 
L 247.933949 -115.51765 
L 247.763997 -114.583316 
L 247.832161 -113.648982 
L 248.144567 -112.714649 
L 248.703957 -111.780315 
L 249.509549 -110.845982 
L 250.556869 -109.911648 
L 251.83757 -108.977315 
L 253.339268 -108.042981 
L 255.045396 -107.108648 
L 256.935121 -106.174314 
L 258.983349 -105.239981 
L 261.160835 -104.305647 
L 263.434435 -103.371313 
L 265.767505 -102.43698 
L 268.120463 -101.502646 
L 270.451514 -100.568313 
L 272.717518 -99.633979 
L 274.874995 -98.699646 
L 276.881212 -97.765312 
L 278.695342 -96.830979 
L 280.279613 -95.896645 
L 281.600428 -94.962311 
L 282.629382 -94.027978 
L 283.344142 -93.093644 
L 283.729131 -92.159311 
L 283.776 -91.224977 
L 283.48385 -90.290644 
L 282.859192 -89.35631 
L 281.915658 -88.421977 
L 280.673462 -87.487643 
L 279.158654 -86.55331 
L 277.402183 -85.618976 
L 275.438835 -84.684642 
L 273.306081 -83.750309 
L 271.042889 -82.815975 
L 268.688558 -81.881642 
L 266.281612 -80.947308 
L 263.858799 -80.012975 
L 261.454229 -79.078641 
L 259.098675 -78.144308 
L 256.819046 -77.209974 
L 254.638044 -76.275641 
L 252.573995 -75.341307 
L 250.640846 -74.406973 
L 248.848306 -73.47264 
L 247.20211 -72.538306 
L 245.704382 -71.603973 
L 244.354061 -70.669639 
L 243.147381 -69.735306 
L 242.078362 -68.800972 
L 241.139299 -67.866639 
L 240.321231 -66.932305 
L 239.614375 -65.997972 
L 239.00851 -65.063638 
L 238.493312 -64.129304 
L 238.05863 -63.194971 
z
" style="stroke: #999999; stroke-width: 1.5"/>
    </defs>
    <g clip-path="url(#p3f6b2d9d6e)">
     <use xlink:href="#m12ea222f1b" x="0" y="345.6" style="fill: #ffffff; stroke: #999999; stroke-width: 1.5"/>
    </g>
   </g>
   <g id="PolyCollection_3">
    <defs>
     <path id="m109ae15646" d="M 355.408969 -66.333817 
L 354.991031 -66.333817 
L 354.93602 -68.613596 
L 354.87133 -70.893376 
L 354.796679 -73.173156 
L 354.712197 -75.452935 
L 354.618509 -77.732715 
L 354.516796 -80.012494 
L 354.408825 -82.292274 
L 354.296938 -84.572054 
L 354.183992 -86.851833 
L 354.073246 -89.131613 
L 353.968202 -91.411393 
L 353.8724 -93.691172 
L 353.78919 -95.970952 
L 353.721481 -98.250731 
L 353.671502 -100.530511 
L 353.640585 -102.810291 
L 353.628996 -105.09007 
L 353.635812 -107.36985 
L 353.658879 -109.64963 
L 353.694839 -111.929409 
L 353.73923 -114.209189 
L 353.786656 -116.488969 
L 353.831016 -118.768748 
L 353.865784 -121.048528 
L 353.884329 -123.328307 
L 353.880252 -125.608087 
L 353.847742 -127.887867 
L 353.781932 -130.167646 
L 353.679231 -132.447426 
L 353.537635 -134.727206 
L 353.356983 -137.006985 
L 353.139144 -139.286765 
L 352.888114 -141.566544 
L 352.610001 -143.846324 
L 352.312877 -146.126104 
L 352.006504 -148.405883 
L 351.701907 -150.685663 
L 351.410831 -152.965443 
L 351.145108 -155.245222 
L 350.915951 -157.525002 
L 350.733257 -159.804781 
L 350.604953 -162.084561 
L 350.536448 -164.364341 
L 350.530237 -166.64412 
L 350.585701 -168.9239 
L 350.699109 -171.20368 
L 350.863825 -173.483459 
L 351.070704 -175.763239 
L 351.308616 -178.043019 
L 351.565063 -180.322798 
L 351.826802 -182.602578 
L 352.080431 -184.882357 
L 352.312853 -187.162137 
L 352.511587 -189.441917 
L 352.664884 -191.721696 
L 352.761645 -194.001476 
L 352.791147 -196.281256 
L 352.742619 -198.561035 
L 352.604732 -200.840815 
L 352.365071 -203.120594 
L 352.009707 -205.400374 
L 351.522951 -207.680154 
L 350.887405 -209.959933 
L 350.084405 -212.239713 
L 349.094906 -214.519493 
L 347.900853 -216.799272 
L 346.486987 -219.079052 
L 344.843021 -221.358831 
L 342.966022 -223.638611 
L 340.862779 -225.918391 
L 338.551927 -228.19817 
L 336.065511 -230.47795 
L 333.449748 -232.75773 
L 330.764746 -235.037509 
L 328.083025 -237.317289 
L 325.486818 -239.597069 
L 323.064224 -241.876848 
L 320.904451 -244.156628 
L 319.092484 -246.436407 
L 317.703637 -248.716187 
L 316.798451 -250.995967 
L 316.418431 -253.275746 
L 316.583042 -255.555526 
L 317.288236 -257.835306 
L 318.506695 -260.115085 
L 320.189728 -262.394865 
L 322.270662 -264.674644 
L 324.669368 -266.954424 
L 327.29751 -269.234204 
L 330.064029 -271.513983 
L 332.880377 -273.793763 
L 335.665119 -276.073543 
L 338.34756 -278.353322 
L 340.870234 -280.633102 
L 343.190177 -282.912881 
L 345.27906 -285.192661 
L 347.122339 -287.472441 
L 348.717639 -289.75222 
L 350.072635 -292.032 
L 360.327365 -292.032 
L 360.327365 -292.032 
L 361.682361 -289.75222 
L 363.277661 -287.472441 
L 365.12094 -285.192661 
L 367.209823 -282.912881 
L 369.529766 -280.633102 
L 372.05244 -278.353322 
L 374.734881 -276.073543 
L 377.519623 -273.793763 
L 380.335971 -271.513983 
L 383.10249 -269.234204 
L 385.730632 -266.954424 
L 388.129338 -264.674644 
L 390.210272 -262.394865 
L 391.893305 -260.115085 
L 393.111764 -257.835306 
L 393.816958 -255.555526 
L 393.981569 -253.275746 
L 393.601549 -250.995967 
L 392.696363 -248.716187 
L 391.307516 -246.436407 
L 389.495549 -244.156628 
L 387.335776 -241.876848 
L 384.913182 -239.597069 
L 382.316975 -237.317289 
L 379.635254 -235.037509 
L 376.950252 -232.75773 
L 374.334489 -230.47795 
L 371.848073 -228.19817 
L 369.537221 -225.918391 
L 367.433978 -223.638611 
L 365.556979 -221.358831 
L 363.913013 -219.079052 
L 362.499147 -216.799272 
L 361.305094 -214.519493 
L 360.315595 -212.239713 
L 359.512595 -209.959933 
L 358.877049 -207.680154 
L 358.390293 -205.400374 
L 358.034929 -203.120594 
L 357.795268 -200.840815 
L 357.657381 -198.561035 
L 357.608853 -196.281256 
L 357.638355 -194.001476 
L 357.735116 -191.721696 
L 357.888413 -189.441917 
L 358.087147 -187.162137 
L 358.319569 -184.882357 
L 358.573198 -182.602578 
L 358.834937 -180.322798 
L 359.091384 -178.043019 
L 359.329296 -175.763239 
L 359.536175 -173.483459 
L 359.700891 -171.20368 
L 359.814299 -168.9239 
L 359.869763 -166.64412 
L 359.863552 -164.364341 
L 359.795047 -162.084561 
L 359.666743 -159.804781 
L 359.484049 -157.525002 
L 359.254892 -155.245222 
L 358.989169 -152.965443 
L 358.698093 -150.685663 
L 358.393496 -148.405883 
L 358.087123 -146.126104 
L 357.789999 -143.846324 
L 357.511886 -141.566544 
L 357.260856 -139.286765 
L 357.043017 -137.006985 
L 356.862365 -134.727206 
L 356.720769 -132.447426 
L 356.618068 -130.167646 
L 356.552258 -127.887867 
L 356.519748 -125.608087 
L 356.515671 -123.328307 
L 356.534216 -121.048528 
L 356.568984 -118.768748 
L 356.613344 -116.488969 
L 356.66077 -114.209189 
L 356.705161 -111.929409 
L 356.741121 -109.64963 
L 356.764188 -107.36985 
L 356.771004 -105.09007 
L 356.759415 -102.810291 
L 356.728498 -100.530511 
L 356.678519 -98.250731 
L 356.61081 -95.970952 
L 356.5276 -93.691172 
L 356.431798 -91.411393 
L 356.326754 -89.131613 
L 356.216008 -86.851833 
L 356.103062 -84.572054 
L 355.991175 -82.292274 
L 355.883204 -80.012494 
L 355.781491 -77.732715 
L 355.687803 -75.452935 
L 355.603321 -73.173156 
L 355.52867 -70.893376 
L 355.46398 -68.613596 
L 355.408969 -66.333817 
z
" style="stroke: #999999; stroke-width: 1.5"/>
    </defs>
    <g clip-path="url(#p3f6b2d9d6e)">
     <use xlink:href="#m109ae15646" x="0" y="345.6" style="fill: #ffffff; stroke: #999999; stroke-width: 1.5"/>
    </g>
   </g>
   <g id="matplotlib.axis_1">
    <g id="xtick_1">
     <g id="line2d_1">
      <defs>
       <path id="m898a0938a0" d="M 0 0 
L 0 3.5 
" style="stroke: #000000; stroke-width: 0.8"/>
      </defs>
      <g>
       <use xlink:href="#m898a0938a0" x="117.12" y="307.584" style="stroke: #000000; stroke-width: 0.8"/>
      </g>
     </g>
     <g id="text_1">
      <!-- Nx_Time -->
      <g transform="translate(97.305937 321.741812) scale(0.1 -0.1)">
       <defs>
        <path id="ArialMT-4e" d="M 488 0 
L 488 4581 
L 1109 4581 
L 3516 984 
L 3516 4581 
L 4097 4581 
L 4097 0 
L 3475 0 
L 1069 3600 
L 1069 0 
L 488 0 
z
" transform="scale(0.015625)"/>
        <path id="ArialMT-78" d="M 47 0 
L 1259 1725 
L 138 3319 
L 841 3319 
L 1350 2541 
Q 1494 2319 1581 2169 
Q 1719 2375 1834 2534 
L 2394 3319 
L 3066 3319 
L 1919 1756 
L 3153 0 
L 2463 0 
L 1781 1031 
L 1600 1309 
L 728 0 
L 47 0 
z
" transform="scale(0.015625)"/>
        <path id="ArialMT-5f" d="M -97 -1272 
L -97 -866 
L 3631 -866 
L 3631 -1272 
L -97 -1272 
z
" transform="scale(0.015625)"/>
        <path id="ArialMT-54" d="M 1659 0 
L 1659 4041 
L 150 4041 
L 150 4581 
L 3781 4581 
L 3781 4041 
L 2266 4041 
L 2266 0 
L 1659 0 
z
" transform="scale(0.015625)"/>
        <path id="ArialMT-69" d="M 425 3934 
L 425 4581 
L 988 4581 
L 988 3934 
L 425 3934 
z
M 425 0 
L 425 3319 
L 988 3319 
L 988 0 
L 425 0 
z
" transform="scale(0.015625)"/>
        <path id="ArialMT-6d" d="M 422 0 
L 422 3319 
L 925 3319 
L 925 2853 
Q 1081 3097 1340 3245 
Q 1600 3394 1931 3394 
Q 2300 3394 2536 3241 
Q 2772 3088 2869 2813 
Q 3263 3394 3894 3394 
Q 4388 3394 4653 3120 
Q 4919 2847 4919 2278 
L 4919 0 
L 4359 0 
L 4359 2091 
Q 4359 2428 4304 2576 
Q 4250 2725 4106 2815 
Q 3963 2906 3769 2906 
Q 3419 2906 3187 2673 
Q 2956 2441 2956 1928 
L 2956 0 
L 2394 0 
L 2394 2156 
Q 2394 2531 2256 2718 
Q 2119 2906 1806 2906 
Q 1569 2906 1367 2781 
Q 1166 2656 1075 2415 
Q 984 2175 984 1722 
L 984 0 
L 422 0 
z
" transform="scale(0.015625)"/>
        <path id="ArialMT-65" d="M 2694 1069 
L 3275 997 
Q 3138 488 2766 206 
Q 2394 -75 1816 -75 
Q 1088 -75 661 373 
Q 234 822 234 1631 
Q 234 2469 665 2931 
Q 1097 3394 1784 3394 
Q 2450 3394 2872 2941 
Q 3294 2488 3294 1666 
Q 3294 1616 3291 1516 
L 816 1516 
Q 847 969 1125 678 
Q 1403 388 1819 388 
Q 2128 388 2347 550 
Q 2566 713 2694 1069 
z
M 847 1978 
L 2700 1978 
Q 2663 2397 2488 2606 
Q 2219 2931 1791 2931 
Q 1403 2931 1139 2672 
Q 875 2413 847 1978 
z
" transform="scale(0.015625)"/>
       </defs>
       <use xlink:href="#ArialMT-4e"/>
       <use xlink:href="#ArialMT-78" x="72.216797"/>
       <use xlink:href="#ArialMT-5f" x="122.216797"/>
       <use xlink:href="#ArialMT-54" x="177.832031"/>
       <use xlink:href="#ArialMT-69" x="235.166016"/>
       <use xlink:href="#ArialMT-6d" x="257.382812"/>
       <use xlink:href="#ArialMT-65" x="340.683594"/>
      </g>
     </g>
    </g>
    <g id="xtick_2">
     <g id="line2d_2">
      <g>
       <use xlink:href="#m898a0938a0" x="236.16" y="307.584" style="stroke: #000000; stroke-width: 0.8"/>
      </g>
     </g>
     <g id="text_2">
      <!-- Hemisphere_Frozen -->
      <g transform="translate(190.865469 321.741812) scale(0.1 -0.1)">
       <defs>
        <path id="ArialMT-48" d="M 513 0 
L 513 4581 
L 1119 4581 
L 1119 2700 
L 3500 2700 
L 3500 4581 
L 4106 4581 
L 4106 0 
L 3500 0 
L 3500 2159 
L 1119 2159 
L 1119 0 
L 513 0 
z
" transform="scale(0.015625)"/>
        <path id="ArialMT-73" d="M 197 991 
L 753 1078 
Q 800 744 1014 566 
Q 1228 388 1613 388 
Q 2000 388 2187 545 
Q 2375 703 2375 916 
Q 2375 1106 2209 1216 
Q 2094 1291 1634 1406 
Q 1016 1563 777 1677 
Q 538 1791 414 1992 
Q 291 2194 291 2438 
Q 291 2659 392 2848 
Q 494 3038 669 3163 
Q 800 3259 1026 3326 
Q 1253 3394 1513 3394 
Q 1903 3394 2198 3281 
Q 2494 3169 2634 2976 
Q 2775 2784 2828 2463 
L 2278 2388 
Q 2241 2644 2061 2787 
Q 1881 2931 1553 2931 
Q 1166 2931 1000 2803 
Q 834 2675 834 2503 
Q 834 2394 903 2306 
Q 972 2216 1119 2156 
Q 1203 2125 1616 2013 
Q 2213 1853 2448 1751 
Q 2684 1650 2818 1456 
Q 2953 1263 2953 975 
Q 2953 694 2789 445 
Q 2625 197 2315 61 
Q 2006 -75 1616 -75 
Q 969 -75 630 194 
Q 291 463 197 991 
z
" transform="scale(0.015625)"/>
        <path id="ArialMT-70" d="M 422 -1272 
L 422 3319 
L 934 3319 
L 934 2888 
Q 1116 3141 1344 3267 
Q 1572 3394 1897 3394 
Q 2322 3394 2647 3175 
Q 2972 2956 3137 2557 
Q 3303 2159 3303 1684 
Q 3303 1175 3120 767 
Q 2938 359 2589 142 
Q 2241 -75 1856 -75 
Q 1575 -75 1351 44 
Q 1128 163 984 344 
L 984 -1272 
L 422 -1272 
z
M 931 1641 
Q 931 1000 1190 694 
Q 1450 388 1819 388 
Q 2194 388 2461 705 
Q 2728 1022 2728 1688 
Q 2728 2322 2467 2637 
Q 2206 2953 1844 2953 
Q 1484 2953 1207 2617 
Q 931 2281 931 1641 
z
" transform="scale(0.015625)"/>
        <path id="ArialMT-68" d="M 422 0 
L 422 4581 
L 984 4581 
L 984 2938 
Q 1378 3394 1978 3394 
Q 2347 3394 2619 3248 
Q 2891 3103 3008 2847 
Q 3125 2591 3125 2103 
L 3125 0 
L 2563 0 
L 2563 2103 
Q 2563 2525 2380 2717 
Q 2197 2909 1863 2909 
Q 1613 2909 1392 2779 
Q 1172 2650 1078 2428 
Q 984 2206 984 1816 
L 984 0 
L 422 0 
z
" transform="scale(0.015625)"/>
        <path id="ArialMT-72" d="M 416 0 
L 416 3319 
L 922 3319 
L 922 2816 
Q 1116 3169 1280 3281 
Q 1444 3394 1641 3394 
Q 1925 3394 2219 3213 
L 2025 2691 
Q 1819 2813 1613 2813 
Q 1428 2813 1281 2702 
Q 1134 2591 1072 2394 
Q 978 2094 978 1738 
L 978 0 
L 416 0 
z
" transform="scale(0.015625)"/>
        <path id="ArialMT-46" d="M 525 0 
L 525 4581 
L 3616 4581 
L 3616 4041 
L 1131 4041 
L 1131 2622 
L 3281 2622 
L 3281 2081 
L 1131 2081 
L 1131 0 
L 525 0 
z
" transform="scale(0.015625)"/>
        <path id="ArialMT-6f" d="M 213 1659 
Q 213 2581 725 3025 
Q 1153 3394 1769 3394 
Q 2453 3394 2887 2945 
Q 3322 2497 3322 1706 
Q 3322 1066 3130 698 
Q 2938 331 2570 128 
Q 2203 -75 1769 -75 
Q 1072 -75 642 372 
Q 213 819 213 1659 
z
M 791 1659 
Q 791 1022 1069 705 
Q 1347 388 1769 388 
Q 2188 388 2466 706 
Q 2744 1025 2744 1678 
Q 2744 2294 2464 2611 
Q 2184 2928 1769 2928 
Q 1347 2928 1069 2612 
Q 791 2297 791 1659 
z
" transform="scale(0.015625)"/>
        <path id="ArialMT-7a" d="M 125 0 
L 125 456 
L 2238 2881 
Q 1878 2863 1603 2863 
L 250 2863 
L 250 3319 
L 2963 3319 
L 2963 2947 
L 1166 841 
L 819 456 
Q 1197 484 1528 484 
L 3063 484 
L 3063 0 
L 125 0 
z
" transform="scale(0.015625)"/>
        <path id="ArialMT-6e" d="M 422 0 
L 422 3319 
L 928 3319 
L 928 2847 
Q 1294 3394 1984 3394 
Q 2284 3394 2536 3286 
Q 2788 3178 2913 3003 
Q 3038 2828 3088 2588 
Q 3119 2431 3119 2041 
L 3119 0 
L 2556 0 
L 2556 2019 
Q 2556 2363 2490 2533 
Q 2425 2703 2258 2804 
Q 2091 2906 1866 2906 
Q 1506 2906 1245 2678 
Q 984 2450 984 1813 
L 984 0 
L 422 0 
z
" transform="scale(0.015625)"/>
       </defs>
       <use xlink:href="#ArialMT-48"/>
       <use xlink:href="#ArialMT-65" x="72.216797"/>
       <use xlink:href="#ArialMT-6d" x="127.832031"/>
       <use xlink:href="#ArialMT-69" x="211.132812"/>
       <use xlink:href="#ArialMT-73" x="233.349609"/>
       <use xlink:href="#ArialMT-70" x="283.349609"/>
       <use xlink:href="#ArialMT-68" x="338.964844"/>
       <use xlink:href="#ArialMT-65" x="394.580078"/>
       <use xlink:href="#ArialMT-72" x="450.195312"/>
       <use xlink:href="#ArialMT-65" x="483.496094"/>
       <use xlink:href="#ArialMT-5f" x="539.111328"/>
       <use xlink:href="#ArialMT-46" x="594.726562"/>
       <use xlink:href="#ArialMT-72" x="655.810547"/>
       <use xlink:href="#ArialMT-6f" x="689.111328"/>
       <use xlink:href="#ArialMT-7a" x="744.726562"/>
       <use xlink:href="#ArialMT-65" x="794.726562"/>
       <use xlink:href="#ArialMT-6e" x="850.341797"/>
      </g>
     </g>
    </g>
    <g id="xtick_3">
     <g id="line2d_3">
      <g>
       <use xlink:href="#m898a0938a0" x="355.2" y="307.584" style="stroke: #000000; stroke-width: 0.8"/>
      </g>
     </g>
     <g id="text_3">
      <!-- Treatment_MeanRelRank -->
      <g transform="translate(298.142969 321.741812) scale(0.1 -0.1)">
       <defs>
        <path id="ArialMT-61" d="M 2588 409 
Q 2275 144 1986 34 
Q 1697 -75 1366 -75 
Q 819 -75 525 192 
Q 231 459 231 875 
Q 231 1119 342 1320 
Q 453 1522 633 1644 
Q 813 1766 1038 1828 
Q 1203 1872 1538 1913 
Q 2219 1994 2541 2106 
Q 2544 2222 2544 2253 
Q 2544 2597 2384 2738 
Q 2169 2928 1744 2928 
Q 1347 2928 1158 2789 
Q 969 2650 878 2297 
L 328 2372 
Q 403 2725 575 2942 
Q 747 3159 1072 3276 
Q 1397 3394 1825 3394 
Q 2250 3394 2515 3294 
Q 2781 3194 2906 3042 
Q 3031 2891 3081 2659 
Q 3109 2516 3109 2141 
L 3109 1391 
Q 3109 606 3145 398 
Q 3181 191 3288 0 
L 2700 0 
Q 2613 175 2588 409 
z
M 2541 1666 
Q 2234 1541 1622 1453 
Q 1275 1403 1131 1340 
Q 988 1278 909 1158 
Q 831 1038 831 891 
Q 831 666 1001 516 
Q 1172 366 1500 366 
Q 1825 366 2078 508 
Q 2331 650 2450 897 
Q 2541 1088 2541 1459 
L 2541 1666 
z
" transform="scale(0.015625)"/>
        <path id="ArialMT-74" d="M 1650 503 
L 1731 6 
Q 1494 -44 1306 -44 
Q 1000 -44 831 53 
Q 663 150 594 308 
Q 525 466 525 972 
L 525 2881 
L 113 2881 
L 113 3319 
L 525 3319 
L 525 4141 
L 1084 4478 
L 1084 3319 
L 1650 3319 
L 1650 2881 
L 1084 2881 
L 1084 941 
Q 1084 700 1114 631 
Q 1144 563 1211 522 
Q 1278 481 1403 481 
Q 1497 481 1650 503 
z
" transform="scale(0.015625)"/>
        <path id="ArialMT-4d" d="M 475 0 
L 475 4581 
L 1388 4581 
L 2472 1338 
Q 2622 884 2691 659 
Q 2769 909 2934 1394 
L 4031 4581 
L 4847 4581 
L 4847 0 
L 4263 0 
L 4263 3834 
L 2931 0 
L 2384 0 
L 1059 3900 
L 1059 0 
L 475 0 
z
" transform="scale(0.015625)"/>
        <path id="ArialMT-52" d="M 503 0 
L 503 4581 
L 2534 4581 
Q 3147 4581 3465 4457 
Q 3784 4334 3975 4021 
Q 4166 3709 4166 3331 
Q 4166 2844 3850 2509 
Q 3534 2175 2875 2084 
Q 3116 1969 3241 1856 
Q 3506 1613 3744 1247 
L 4541 0 
L 3778 0 
L 3172 953 
Q 2906 1366 2734 1584 
Q 2563 1803 2427 1890 
Q 2291 1978 2150 2013 
Q 2047 2034 1813 2034 
L 1109 2034 
L 1109 0 
L 503 0 
z
M 1109 2559 
L 2413 2559 
Q 2828 2559 3062 2645 
Q 3297 2731 3419 2920 
Q 3541 3109 3541 3331 
Q 3541 3656 3305 3865 
Q 3069 4075 2559 4075 
L 1109 4075 
L 1109 2559 
z
" transform="scale(0.015625)"/>
        <path id="ArialMT-6c" d="M 409 0 
L 409 4581 
L 972 4581 
L 972 0 
L 409 0 
z
" transform="scale(0.015625)"/>
        <path id="ArialMT-6b" d="M 425 0 
L 425 4581 
L 988 4581 
L 988 1969 
L 2319 3319 
L 3047 3319 
L 1778 2088 
L 3175 0 
L 2481 0 
L 1384 1697 
L 988 1316 
L 988 0 
L 425 0 
z
" transform="scale(0.015625)"/>
       </defs>
       <use xlink:href="#ArialMT-54"/>
       <use xlink:href="#ArialMT-72" x="57.333984"/>
       <use xlink:href="#ArialMT-65" x="90.634766"/>
       <use xlink:href="#ArialMT-61" x="146.25"/>
       <use xlink:href="#ArialMT-74" x="201.865234"/>
       <use xlink:href="#ArialMT-6d" x="229.648438"/>
       <use xlink:href="#ArialMT-65" x="312.949219"/>
       <use xlink:href="#ArialMT-6e" x="368.564453"/>
       <use xlink:href="#ArialMT-74" x="424.179688"/>
       <use xlink:href="#ArialMT-5f" x="451.962891"/>
       <use xlink:href="#ArialMT-4d" x="507.578125"/>
       <use xlink:href="#ArialMT-65" x="590.878906"/>
       <use xlink:href="#ArialMT-61" x="646.494141"/>
       <use xlink:href="#ArialMT-6e" x="702.109375"/>
       <use xlink:href="#ArialMT-52" x="757.724609"/>
       <use xlink:href="#ArialMT-65" x="829.941406"/>
       <use xlink:href="#ArialMT-6c" x="885.556641"/>
       <use xlink:href="#ArialMT-52" x="907.773438"/>
       <use xlink:href="#ArialMT-61" x="979.990234"/>
       <use xlink:href="#ArialMT-6e" x="1035.605469"/>
       <use xlink:href="#ArialMT-6b" x="1091.220703"/>
      </g>
     </g>
    </g>
    <g id="text_4">
     <!-- covariate -->
     <g transform="translate(215.873281 334.887125) scale(0.1 -0.1)">
      <defs>
       <path id="ArialMT-63" d="M 2588 1216 
L 3141 1144 
Q 3050 572 2676 248 
Q 2303 -75 1759 -75 
Q 1078 -75 664 370 
Q 250 816 250 1647 
Q 250 2184 428 2587 
Q 606 2991 970 3192 
Q 1334 3394 1763 3394 
Q 2303 3394 2647 3120 
Q 2991 2847 3088 2344 
L 2541 2259 
Q 2463 2594 2264 2762 
Q 2066 2931 1784 2931 
Q 1359 2931 1093 2626 
Q 828 2322 828 1663 
Q 828 994 1084 691 
Q 1341 388 1753 388 
Q 2084 388 2306 591 
Q 2528 794 2588 1216 
z
" transform="scale(0.015625)"/>
       <path id="ArialMT-76" d="M 1344 0 
L 81 3319 
L 675 3319 
L 1388 1331 
Q 1503 1009 1600 663 
Q 1675 925 1809 1294 
L 2547 3319 
L 3125 3319 
L 1869 0 
L 1344 0 
z
" transform="scale(0.015625)"/>
      </defs>
      <use xlink:href="#ArialMT-63"/>
      <use xlink:href="#ArialMT-6f" x="50"/>
      <use xlink:href="#ArialMT-76" x="105.615234"/>
      <use xlink:href="#ArialMT-61" x="155.615234"/>
      <use xlink:href="#ArialMT-72" x="211.230469"/>
      <use xlink:href="#ArialMT-69" x="244.53125"/>
      <use xlink:href="#ArialMT-61" x="266.748047"/>
      <use xlink:href="#ArialMT-74" x="322.363281"/>
      <use xlink:href="#ArialMT-65" x="350.146484"/>
     </g>
    </g>
   </g>
   <g id="matplotlib.axis_2">
    <g id="ytick_1">
     <g id="line2d_4">
      <defs>
       <path id="m59785fa73f" d="M 0 0 
L -3.5 0 
" style="stroke: #000000; stroke-width: 0.8"/>
      </defs>
      <g>
       <use xlink:href="#m59785fa73f" x="57.6" y="260.791296" style="stroke: #000000; stroke-width: 0.8"/>
      </g>
     </g>
     <g id="text_5">
      <!-- 0.0 -->
      <g transform="translate(36.7 264.370202) scale(0.1 -0.1)">
       <defs>
        <path id="ArialMT-30" d="M 266 2259 
Q 266 3072 433 3567 
Q 600 4063 929 4331 
Q 1259 4600 1759 4600 
Q 2128 4600 2406 4451 
Q 2684 4303 2865 4023 
Q 3047 3744 3150 3342 
Q 3253 2941 3253 2259 
Q 3253 1453 3087 958 
Q 2922 463 2592 192 
Q 2263 -78 1759 -78 
Q 1097 -78 719 397 
Q 266 969 266 2259 
z
M 844 2259 
Q 844 1131 1108 757 
Q 1372 384 1759 384 
Q 2147 384 2411 759 
Q 2675 1134 2675 2259 
Q 2675 3391 2411 3762 
Q 2147 4134 1753 4134 
Q 1366 4134 1134 3806 
Q 844 3388 844 2259 
z
" transform="scale(0.015625)"/>
        <path id="ArialMT-2e" d="M 581 0 
L 581 641 
L 1222 641 
L 1222 0 
L 581 0 
z
" transform="scale(0.015625)"/>
       </defs>
       <use xlink:href="#ArialMT-30"/>
       <use xlink:href="#ArialMT-2e" x="55.615234"/>
       <use xlink:href="#ArialMT-30" x="83.398438"/>
      </g>
     </g>
    </g>
    <g id="ytick_2">
     <g id="line2d_5">
      <g>
       <use xlink:href="#m59785fa73f" x="57.6" y="184.623946" style="stroke: #000000; stroke-width: 0.8"/>
      </g>
     </g>
     <g id="text_6">
      <!-- 0.1 -->
      <g transform="translate(36.7 188.202852) scale(0.1 -0.1)">
       <defs>
        <path id="ArialMT-31" d="M 2384 0 
L 1822 0 
L 1822 3584 
Q 1619 3391 1289 3197 
Q 959 3003 697 2906 
L 697 3450 
Q 1169 3672 1522 3987 
Q 1875 4303 2022 4600 
L 2384 4600 
L 2384 0 
z
" transform="scale(0.015625)"/>
       </defs>
       <use xlink:href="#ArialMT-30"/>
       <use xlink:href="#ArialMT-2e" x="55.615234"/>
       <use xlink:href="#ArialMT-31" x="83.398438"/>
      </g>
     </g>
    </g>
    <g id="ytick_3">
     <g id="line2d_6">
      <g>
       <use xlink:href="#m59785fa73f" x="57.6" y="108.456596" style="stroke: #000000; stroke-width: 0.8"/>
      </g>
     </g>
     <g id="text_7">
      <!-- 0.2 -->
      <g transform="translate(36.7 112.035503) scale(0.1 -0.1)">
       <defs>
        <path id="ArialMT-32" d="M 3222 541 
L 3222 0 
L 194 0 
Q 188 203 259 391 
Q 375 700 629 1000 
Q 884 1300 1366 1694 
Q 2113 2306 2375 2664 
Q 2638 3022 2638 3341 
Q 2638 3675 2398 3904 
Q 2159 4134 1775 4134 
Q 1369 4134 1125 3890 
Q 881 3647 878 3216 
L 300 3275 
Q 359 3922 746 4261 
Q 1134 4600 1788 4600 
Q 2447 4600 2831 4234 
Q 3216 3869 3216 3328 
Q 3216 3053 3103 2787 
Q 2991 2522 2730 2228 
Q 2469 1934 1863 1422 
Q 1356 997 1212 845 
Q 1069 694 975 541 
L 3222 541 
z
" transform="scale(0.015625)"/>
       </defs>
       <use xlink:href="#ArialMT-30"/>
       <use xlink:href="#ArialMT-2e" x="55.615234"/>
       <use xlink:href="#ArialMT-32" x="83.398438"/>
      </g>
     </g>
    </g>
    <g id="text_8">
     <!-- qvalue -->
     <g transform="translate(30.7125 189.260812) rotate(-90) scale(0.1 -0.1)">
      <defs>
       <path id="ArialMT-71" d="M 2538 -1272 
L 2538 353 
Q 2406 169 2170 47 
Q 1934 -75 1669 -75 
Q 1078 -75 651 397 
Q 225 869 225 1691 
Q 225 2191 398 2587 
Q 572 2984 901 3189 
Q 1231 3394 1625 3394 
Q 2241 3394 2594 2875 
L 2594 3319 
L 3100 3319 
L 3100 -1272 
L 2538 -1272 
z
M 803 1669 
Q 803 1028 1072 708 
Q 1341 388 1716 388 
Q 2075 388 2334 692 
Q 2594 997 2594 1619 
Q 2594 2281 2320 2615 
Q 2047 2950 1678 2950 
Q 1313 2950 1058 2639 
Q 803 2328 803 1669 
z
" transform="scale(0.015625)"/>
       <path id="ArialMT-75" d="M 2597 0 
L 2597 488 
Q 2209 -75 1544 -75 
Q 1250 -75 995 37 
Q 741 150 617 320 
Q 494 491 444 738 
Q 409 903 409 1263 
L 409 3319 
L 972 3319 
L 972 1478 
Q 972 1038 1006 884 
Q 1059 663 1231 536 
Q 1403 409 1656 409 
Q 1909 409 2131 539 
Q 2353 669 2445 892 
Q 2538 1116 2538 1541 
L 2538 3319 
L 3100 3319 
L 3100 0 
L 2597 0 
z
" transform="scale(0.015625)"/>
      </defs>
      <use xlink:href="#ArialMT-71"/>
      <use xlink:href="#ArialMT-76" x="55.615234"/>
      <use xlink:href="#ArialMT-61" x="105.615234"/>
      <use xlink:href="#ArialMT-6c" x="161.230469"/>
      <use xlink:href="#ArialMT-75" x="183.447266"/>
      <use xlink:href="#ArialMT-65" x="239.0625"/>
     </g>
    </g>
   </g>
   <g id="line2d_7">
    <path d="M 117.12 260.791296 
L 117.12 138.273352 
" clip-path="url(#p3f6b2d9d6e)" style="fill: none; stroke: #999999; stroke-width: 1.5; stroke-linecap: round"/>
   </g>
   <g id="line2d_8">
    <path d="M 117.12 192.002879 
L 117.12 138.273352 
" clip-path="url(#p3f6b2d9d6e)" style="fill: none; stroke: #999999; stroke-width: 4.5; stroke-linecap: round"/>
   </g>
   <g id="line2d_9">
    <path d="M 236.16 260.791296 
L 236.16 211.519741 
" clip-path="url(#p3f6b2d9d6e)" style="fill: none; stroke: #999999; stroke-width: 1.5; stroke-linecap: round"/>
   </g>
   <g id="line2d_10">
    <path d="M 236.16 253.354712 
L 236.16 211.519741 
" clip-path="url(#p3f6b2d9d6e)" style="fill: none; stroke: #999999; stroke-width: 4.5; stroke-linecap: round"/>
   </g>
   <g id="line2d_11">
    <path d="M 355.2 91.417214 
L 355.2 91.417214 
" clip-path="url(#p3f6b2d9d6e)" style="fill: none; stroke: #999999; stroke-width: 1.5; stroke-linecap: round"/>
   </g>
   <g id="line2d_12">
    <path d="M 355.2 91.417214 
L 355.2 91.417214 
" clip-path="url(#p3f6b2d9d6e)" style="fill: none; stroke: #999999; stroke-width: 4.5; stroke-linecap: round"/>
   </g>
   <g id="patch_3">
    <path d="M 57.6 307.584 
L 57.6 41.472 
" style="fill: none; stroke: #000000; stroke-width: 0.8; stroke-linejoin: miter; stroke-linecap: square"/>
   </g>
   <g id="patch_4">
    <path d="M 414.72 307.584 
L 414.72 41.472 
" style="fill: none; stroke: #000000; stroke-width: 0.8; stroke-linejoin: miter; stroke-linecap: square"/>
   </g>
   <g id="patch_5">
    <path d="M 57.6 307.584 
L 414.72 307.584 
" style="fill: none; stroke: #000000; stroke-width: 0.8; stroke-linejoin: miter; stroke-linecap: square"/>
   </g>
   <g id="patch_6">
    <path d="M 57.6 41.472 
L 414.72 41.472 
" style="fill: none; stroke: #000000; stroke-width: 0.8; stroke-linejoin: miter; stroke-linecap: square"/>
   </g>
   <g id="PathCollection_1">
    <defs>
     <path id="m1798ca23f4" d="M 0 1.5 
C 0.397805 1.5 0.77937 1.341951 1.06066 1.06066 
C 1.341951 0.77937 1.5 0.397805 1.5 0 
C 1.5 -0.397805 1.341951 -0.77937 1.06066 -1.06066 
C 0.77937 -1.341951 0.397805 -1.5 0 -1.5 
C -0.397805 -1.5 -0.77937 -1.341951 -1.06066 -1.06066 
C -1.341951 -0.77937 -1.5 -0.397805 -1.5 0 
C -1.5 0.397805 -1.341951 0.77937 -1.06066 1.06066 
C -0.77937 1.341951 -0.397805 1.5 0 1.5 
z
" style="stroke: #999999"/>
    </defs>
    <g clip-path="url(#p3f6b2d9d6e)">
     <use xlink:href="#m1798ca23f4" x="117.12" y="192.002879" style="fill: #ffffff; stroke: #999999"/>
    </g>
   </g>
   <g id="PathCollection_2">
    <g clip-path="url(#p3f6b2d9d6e)">
     <use xlink:href="#m1798ca23f4" x="236.16" y="253.354712" style="fill: #ffffff; stroke: #999999"/>
    </g>
   </g>
   <g id="PathCollection_3">
    <g clip-path="url(#p3f6b2d9d6e)">
     <use xlink:href="#m1798ca23f4" x="355.2" y="91.417214" style="fill: #ffffff; stroke: #999999"/>
    </g>
   </g>
  </g>
 </g>
 <defs>
  <clipPath id="p3f6b2d9d6e">
   <rect x="57.6" y="41.472" width="357.12" height="266.112"/>
  </clipPath>
 </defs>
</svg>
