<?xml version="1.0" encoding="utf-8" standalone="no"?>
<!DOCTYPE svg PUBLIC "-//W3C//DTD SVG 1.1//EN"
  "http://www.w3.org/Graphics/SVG/1.1/DTD/svg11.dtd">
<svg xmlns:xlink="http://www.w3.org/1999/xlink" width="576pt" height="864pt" viewBox="0 0 576 864" xmlns="http://www.w3.org/2000/svg" version="1.1">
 <metadata>
  <rdf:RDF xmlns:dc="http://purl.org/dc/elements/1.1/" xmlns:cc="http://creativecommons.org/ns#" xmlns:rdf="http://www.w3.org/1999/02/22-rdf-syntax-ns#">
   <cc:Work>
    <dc:type rdf:resource="http://purl.org/dc/dcmitype/StillImage"/>
    <dc:date>2024-06-07T12:35:39.795873</dc:date>
    <dc:format>image/svg+xml</dc:format>
    <dc:creator>
     <cc:Agent>
      <dc:title>Matplotlib v3.8.4, https://matplotlib.org/</dc:title>
     </cc:Agent>
    </dc:creator>
   </cc:Work>
  </rdf:RDF>
 </metadata>
 <defs>
  <style type="text/css">*{stroke-linejoin: round; stroke-linecap: butt}</style>
 </defs>
 <g id="figure_1">
  <g id="patch_1">
   <path d="M 0 864 
L 576 864 
L 576 0 
L 0 0 
z
" style="fill: #ffffff"/>
  </g>
  <g id="axes_1">
   <g id="patch_2">
    <path d="M 72 768.96 
L 518.4 768.96 
L 518.4 103.68 
L 72 103.68 
z
" style="fill: #ffffff"/>
   </g>
   <g id="matplotlib.axis_1">
    <g id="xtick_1">
     <g id="text_1">
      <!-- 0.4 -->
      <g style="fill: #262626" transform="translate(129.714637 794.207188) scale(0.22 -0.22)">
       <defs>
        <path id="ArialMT-30" d="M 266 2259 
Q 266 3072 433 3567 
Q 600 4063 929 4331 
Q 1259 4600 1759 4600 
Q 2128 4600 2406 4451 
Q 2684 4303 2865 4023 
Q 3047 3744 3150 3342 
Q 3253 2941 3253 2259 
Q 3253 1453 3087 958 
Q 2922 463 2592 192 
Q 2263 -78 1759 -78 
Q 1097 -78 719 397 
Q 266 969 266 2259 
z
M 844 2259 
Q 844 1131 1108 757 
Q 1372 384 1759 384 
Q 2147 384 2411 759 
Q 2675 1134 2675 2259 
Q 2675 3391 2411 3762 
Q 2147 4134 1753 4134 
Q 1366 4134 1134 3806 
Q 844 3388 844 2259 
z
" transform="scale(0.015625)"/>
        <path id="ArialMT-2e" d="M 581 0 
L 581 641 
L 1222 641 
L 1222 0 
L 581 0 
z
" transform="scale(0.015625)"/>
        <path id="ArialMT-34" d="M 2069 0 
L 2069 1097 
L 81 1097 
L 81 1613 
L 2172 4581 
L 2631 4581 
L 2631 1613 
L 3250 1613 
L 3250 1097 
L 2631 1097 
L 2631 0 
L 2069 0 
z
M 2069 1613 
L 2069 3678 
L 634 1613 
L 2069 1613 
z
" transform="scale(0.015625)"/>
       </defs>
       <use xlink:href="#ArialMT-30"/>
       <use xlink:href="#ArialMT-2e" x="55.615234"/>
       <use xlink:href="#ArialMT-34" x="83.398438"/>
      </g>
     </g>
    </g>
    <g id="xtick_2">
     <g id="text_2">
      <!-- 0.5 -->
      <g style="fill: #262626" transform="translate(205.006119 794.207188) scale(0.22 -0.22)">
       <defs>
        <path id="ArialMT-35" d="M 266 1200 
L 856 1250 
Q 922 819 1161 601 
Q 1400 384 1738 384 
Q 2144 384 2425 690 
Q 2706 997 2706 1503 
Q 2706 1984 2436 2262 
Q 2166 2541 1728 2541 
Q 1456 2541 1237 2417 
Q 1019 2294 894 2097 
L 366 2166 
L 809 4519 
L 3088 4519 
L 3088 3981 
L 1259 3981 
L 1013 2750 
Q 1425 3038 1878 3038 
Q 2478 3038 2890 2622 
Q 3303 2206 3303 1553 
Q 3303 931 2941 478 
Q 2500 -78 1738 -78 
Q 1113 -78 717 272 
Q 322 622 266 1200 
z
" transform="scale(0.015625)"/>
       </defs>
       <use xlink:href="#ArialMT-30"/>
       <use xlink:href="#ArialMT-2e" x="55.615234"/>
       <use xlink:href="#ArialMT-35" x="83.398438"/>
      </g>
     </g>
    </g>
    <g id="xtick_3">
     <g id="text_3">
      <!-- 0.6 -->
      <g style="fill: #262626" transform="translate(280.297601 794.207188) scale(0.22 -0.22)">
       <defs>
        <path id="ArialMT-36" d="M 3184 3459 
L 2625 3416 
Q 2550 3747 2413 3897 
Q 2184 4138 1850 4138 
Q 1581 4138 1378 3988 
Q 1113 3794 959 3422 
Q 806 3050 800 2363 
Q 1003 2672 1297 2822 
Q 1591 2972 1913 2972 
Q 2475 2972 2870 2558 
Q 3266 2144 3266 1488 
Q 3266 1056 3080 686 
Q 2894 316 2569 119 
Q 2244 -78 1831 -78 
Q 1128 -78 684 439 
Q 241 956 241 2144 
Q 241 3472 731 4075 
Q 1159 4600 1884 4600 
Q 2425 4600 2770 4297 
Q 3116 3994 3184 3459 
z
M 888 1484 
Q 888 1194 1011 928 
Q 1134 663 1356 523 
Q 1578 384 1822 384 
Q 2178 384 2434 671 
Q 2691 959 2691 1453 
Q 2691 1928 2437 2201 
Q 2184 2475 1800 2475 
Q 1419 2475 1153 2201 
Q 888 1928 888 1484 
z
" transform="scale(0.015625)"/>
       </defs>
       <use xlink:href="#ArialMT-30"/>
       <use xlink:href="#ArialMT-2e" x="55.615234"/>
       <use xlink:href="#ArialMT-36" x="83.398438"/>
      </g>
     </g>
    </g>
    <g id="xtick_4">
     <g id="text_4">
      <!-- 0.7 -->
      <g style="fill: #262626" transform="translate(355.589083 794.207188) scale(0.22 -0.22)">
       <defs>
        <path id="ArialMT-37" d="M 303 3981 
L 303 4522 
L 3269 4522 
L 3269 4084 
Q 2831 3619 2401 2847 
Q 1972 2075 1738 1259 
Q 1569 684 1522 0 
L 944 0 
Q 953 541 1156 1306 
Q 1359 2072 1739 2783 
Q 2119 3494 2547 3981 
L 303 3981 
z
" transform="scale(0.015625)"/>
       </defs>
       <use xlink:href="#ArialMT-30"/>
       <use xlink:href="#ArialMT-2e" x="55.615234"/>
       <use xlink:href="#ArialMT-37" x="83.398438"/>
      </g>
     </g>
    </g>
    <g id="xtick_5">
     <g id="text_5">
      <!-- 0.8 -->
      <g style="fill: #262626" transform="translate(430.880565 794.207188) scale(0.22 -0.22)">
       <defs>
        <path id="ArialMT-38" d="M 1131 2484 
Q 781 2613 612 2850 
Q 444 3088 444 3419 
Q 444 3919 803 4259 
Q 1163 4600 1759 4600 
Q 2359 4600 2725 4251 
Q 3091 3903 3091 3403 
Q 3091 3084 2923 2848 
Q 2756 2613 2416 2484 
Q 2838 2347 3058 2040 
Q 3278 1734 3278 1309 
Q 3278 722 2862 322 
Q 2447 -78 1769 -78 
Q 1091 -78 675 323 
Q 259 725 259 1325 
Q 259 1772 486 2073 
Q 713 2375 1131 2484 
z
M 1019 3438 
Q 1019 3113 1228 2906 
Q 1438 2700 1772 2700 
Q 2097 2700 2305 2904 
Q 2513 3109 2513 3406 
Q 2513 3716 2298 3927 
Q 2084 4138 1766 4138 
Q 1444 4138 1231 3931 
Q 1019 3725 1019 3438 
z
M 838 1322 
Q 838 1081 952 856 
Q 1066 631 1291 507 
Q 1516 384 1775 384 
Q 2178 384 2440 643 
Q 2703 903 2703 1303 
Q 2703 1709 2433 1975 
Q 2163 2241 1756 2241 
Q 1359 2241 1098 1978 
Q 838 1716 838 1322 
z
" transform="scale(0.015625)"/>
       </defs>
       <use xlink:href="#ArialMT-30"/>
       <use xlink:href="#ArialMT-2e" x="55.615234"/>
       <use xlink:href="#ArialMT-38" x="83.398438"/>
      </g>
     </g>
    </g>
    <g id="text_6">
     <!-- Correlation predicted/groundtruth -->
     <g style="fill: #262626" transform="translate(119.11125 820.050938) scale(0.24 -0.24)">
      <defs>
       <path id="ArialMT-43" d="M 3763 1606 
L 4369 1453 
Q 4178 706 3683 314 
Q 3188 -78 2472 -78 
Q 1731 -78 1267 223 
Q 803 525 561 1097 
Q 319 1669 319 2325 
Q 319 3041 592 3573 
Q 866 4106 1370 4382 
Q 1875 4659 2481 4659 
Q 3169 4659 3637 4309 
Q 4106 3959 4291 3325 
L 3694 3184 
Q 3534 3684 3231 3912 
Q 2928 4141 2469 4141 
Q 1941 4141 1586 3887 
Q 1231 3634 1087 3207 
Q 944 2781 944 2328 
Q 944 1744 1114 1308 
Q 1284 872 1643 656 
Q 2003 441 2422 441 
Q 2931 441 3284 734 
Q 3638 1028 3763 1606 
z
" transform="scale(0.015625)"/>
       <path id="ArialMT-6f" d="M 213 1659 
Q 213 2581 725 3025 
Q 1153 3394 1769 3394 
Q 2453 3394 2887 2945 
Q 3322 2497 3322 1706 
Q 3322 1066 3130 698 
Q 2938 331 2570 128 
Q 2203 -75 1769 -75 
Q 1072 -75 642 372 
Q 213 819 213 1659 
z
M 791 1659 
Q 791 1022 1069 705 
Q 1347 388 1769 388 
Q 2188 388 2466 706 
Q 2744 1025 2744 1678 
Q 2744 2294 2464 2611 
Q 2184 2928 1769 2928 
Q 1347 2928 1069 2612 
Q 791 2297 791 1659 
z
" transform="scale(0.015625)"/>
       <path id="ArialMT-72" d="M 416 0 
L 416 3319 
L 922 3319 
L 922 2816 
Q 1116 3169 1280 3281 
Q 1444 3394 1641 3394 
Q 1925 3394 2219 3213 
L 2025 2691 
Q 1819 2813 1613 2813 
Q 1428 2813 1281 2702 
Q 1134 2591 1072 2394 
Q 978 2094 978 1738 
L 978 0 
L 416 0 
z
" transform="scale(0.015625)"/>
       <path id="ArialMT-65" d="M 2694 1069 
L 3275 997 
Q 3138 488 2766 206 
Q 2394 -75 1816 -75 
Q 1088 -75 661 373 
Q 234 822 234 1631 
Q 234 2469 665 2931 
Q 1097 3394 1784 3394 
Q 2450 3394 2872 2941 
Q 3294 2488 3294 1666 
Q 3294 1616 3291 1516 
L 816 1516 
Q 847 969 1125 678 
Q 1403 388 1819 388 
Q 2128 388 2347 550 
Q 2566 713 2694 1069 
z
M 847 1978 
L 2700 1978 
Q 2663 2397 2488 2606 
Q 2219 2931 1791 2931 
Q 1403 2931 1139 2672 
Q 875 2413 847 1978 
z
" transform="scale(0.015625)"/>
       <path id="ArialMT-6c" d="M 409 0 
L 409 4581 
L 972 4581 
L 972 0 
L 409 0 
z
" transform="scale(0.015625)"/>
       <path id="ArialMT-61" d="M 2588 409 
Q 2275 144 1986 34 
Q 1697 -75 1366 -75 
Q 819 -75 525 192 
Q 231 459 231 875 
Q 231 1119 342 1320 
Q 453 1522 633 1644 
Q 813 1766 1038 1828 
Q 1203 1872 1538 1913 
Q 2219 1994 2541 2106 
Q 2544 2222 2544 2253 
Q 2544 2597 2384 2738 
Q 2169 2928 1744 2928 
Q 1347 2928 1158 2789 
Q 969 2650 878 2297 
L 328 2372 
Q 403 2725 575 2942 
Q 747 3159 1072 3276 
Q 1397 3394 1825 3394 
Q 2250 3394 2515 3294 
Q 2781 3194 2906 3042 
Q 3031 2891 3081 2659 
Q 3109 2516 3109 2141 
L 3109 1391 
Q 3109 606 3145 398 
Q 3181 191 3288 0 
L 2700 0 
Q 2613 175 2588 409 
z
M 2541 1666 
Q 2234 1541 1622 1453 
Q 1275 1403 1131 1340 
Q 988 1278 909 1158 
Q 831 1038 831 891 
Q 831 666 1001 516 
Q 1172 366 1500 366 
Q 1825 366 2078 508 
Q 2331 650 2450 897 
Q 2541 1088 2541 1459 
L 2541 1666 
z
" transform="scale(0.015625)"/>
       <path id="ArialMT-74" d="M 1650 503 
L 1731 6 
Q 1494 -44 1306 -44 
Q 1000 -44 831 53 
Q 663 150 594 308 
Q 525 466 525 972 
L 525 2881 
L 113 2881 
L 113 3319 
L 525 3319 
L 525 4141 
L 1084 4478 
L 1084 3319 
L 1650 3319 
L 1650 2881 
L 1084 2881 
L 1084 941 
Q 1084 700 1114 631 
Q 1144 563 1211 522 
Q 1278 481 1403 481 
Q 1497 481 1650 503 
z
" transform="scale(0.015625)"/>
       <path id="ArialMT-69" d="M 425 3934 
L 425 4581 
L 988 4581 
L 988 3934 
L 425 3934 
z
M 425 0 
L 425 3319 
L 988 3319 
L 988 0 
L 425 0 
z
" transform="scale(0.015625)"/>
       <path id="ArialMT-6e" d="M 422 0 
L 422 3319 
L 928 3319 
L 928 2847 
Q 1294 3394 1984 3394 
Q 2284 3394 2536 3286 
Q 2788 3178 2913 3003 
Q 3038 2828 3088 2588 
Q 3119 2431 3119 2041 
L 3119 0 
L 2556 0 
L 2556 2019 
Q 2556 2363 2490 2533 
Q 2425 2703 2258 2804 
Q 2091 2906 1866 2906 
Q 1506 2906 1245 2678 
Q 984 2450 984 1813 
L 984 0 
L 422 0 
z
" transform="scale(0.015625)"/>
       <path id="ArialMT-20" transform="scale(0.015625)"/>
       <path id="ArialMT-70" d="M 422 -1272 
L 422 3319 
L 934 3319 
L 934 2888 
Q 1116 3141 1344 3267 
Q 1572 3394 1897 3394 
Q 2322 3394 2647 3175 
Q 2972 2956 3137 2557 
Q 3303 2159 3303 1684 
Q 3303 1175 3120 767 
Q 2938 359 2589 142 
Q 2241 -75 1856 -75 
Q 1575 -75 1351 44 
Q 1128 163 984 344 
L 984 -1272 
L 422 -1272 
z
M 931 1641 
Q 931 1000 1190 694 
Q 1450 388 1819 388 
Q 2194 388 2461 705 
Q 2728 1022 2728 1688 
Q 2728 2322 2467 2637 
Q 2206 2953 1844 2953 
Q 1484 2953 1207 2617 
Q 931 2281 931 1641 
z
" transform="scale(0.015625)"/>
       <path id="ArialMT-64" d="M 2575 0 
L 2575 419 
Q 2259 -75 1647 -75 
Q 1250 -75 917 144 
Q 584 363 401 755 
Q 219 1147 219 1656 
Q 219 2153 384 2558 
Q 550 2963 881 3178 
Q 1213 3394 1622 3394 
Q 1922 3394 2156 3267 
Q 2391 3141 2538 2938 
L 2538 4581 
L 3097 4581 
L 3097 0 
L 2575 0 
z
M 797 1656 
Q 797 1019 1065 703 
Q 1334 388 1700 388 
Q 2069 388 2326 689 
Q 2584 991 2584 1609 
Q 2584 2291 2321 2609 
Q 2059 2928 1675 2928 
Q 1300 2928 1048 2622 
Q 797 2316 797 1656 
z
" transform="scale(0.015625)"/>
       <path id="ArialMT-63" d="M 2588 1216 
L 3141 1144 
Q 3050 572 2676 248 
Q 2303 -75 1759 -75 
Q 1078 -75 664 370 
Q 250 816 250 1647 
Q 250 2184 428 2587 
Q 606 2991 970 3192 
Q 1334 3394 1763 3394 
Q 2303 3394 2647 3120 
Q 2991 2847 3088 2344 
L 2541 2259 
Q 2463 2594 2264 2762 
Q 2066 2931 1784 2931 
Q 1359 2931 1093 2626 
Q 828 2322 828 1663 
Q 828 994 1084 691 
Q 1341 388 1753 388 
Q 2084 388 2306 591 
Q 2528 794 2588 1216 
z
" transform="scale(0.015625)"/>
       <path id="ArialMT-2f" d="M 0 -78 
L 1328 4659 
L 1778 4659 
L 453 -78 
L 0 -78 
z
" transform="scale(0.015625)"/>
       <path id="ArialMT-67" d="M 319 -275 
L 866 -356 
Q 900 -609 1056 -725 
Q 1266 -881 1628 -881 
Q 2019 -881 2231 -725 
Q 2444 -569 2519 -288 
Q 2563 -116 2559 434 
Q 2191 0 1641 0 
Q 956 0 581 494 
Q 206 988 206 1678 
Q 206 2153 378 2554 
Q 550 2956 876 3175 
Q 1203 3394 1644 3394 
Q 2231 3394 2613 2919 
L 2613 3319 
L 3131 3319 
L 3131 450 
Q 3131 -325 2973 -648 
Q 2816 -972 2473 -1159 
Q 2131 -1347 1631 -1347 
Q 1038 -1347 672 -1080 
Q 306 -813 319 -275 
z
M 784 1719 
Q 784 1066 1043 766 
Q 1303 466 1694 466 
Q 2081 466 2343 764 
Q 2606 1063 2606 1700 
Q 2606 2309 2336 2618 
Q 2066 2928 1684 2928 
Q 1309 2928 1046 2623 
Q 784 2319 784 1719 
z
" transform="scale(0.015625)"/>
       <path id="ArialMT-75" d="M 2597 0 
L 2597 488 
Q 2209 -75 1544 -75 
Q 1250 -75 995 37 
Q 741 150 617 320 
Q 494 491 444 738 
Q 409 903 409 1263 
L 409 3319 
L 972 3319 
L 972 1478 
Q 972 1038 1006 884 
Q 1059 663 1231 536 
Q 1403 409 1656 409 
Q 1909 409 2131 539 
Q 2353 669 2445 892 
Q 2538 1116 2538 1541 
L 2538 3319 
L 3100 3319 
L 3100 0 
L 2597 0 
z
" transform="scale(0.015625)"/>
       <path id="ArialMT-68" d="M 422 0 
L 422 4581 
L 984 4581 
L 984 2938 
Q 1378 3394 1978 3394 
Q 2347 3394 2619 3248 
Q 2891 3103 3008 2847 
Q 3125 2591 3125 2103 
L 3125 0 
L 2563 0 
L 2563 2103 
Q 2563 2525 2380 2717 
Q 2197 2909 1863 2909 
Q 1613 2909 1392 2779 
Q 1172 2650 1078 2428 
Q 984 2206 984 1816 
L 984 0 
L 422 0 
z
" transform="scale(0.015625)"/>
      </defs>
      <use xlink:href="#ArialMT-43"/>
      <use xlink:href="#ArialMT-6f" x="72.216797"/>
      <use xlink:href="#ArialMT-72" x="127.832031"/>
      <use xlink:href="#ArialMT-72" x="161.132812"/>
      <use xlink:href="#ArialMT-65" x="194.433594"/>
      <use xlink:href="#ArialMT-6c" x="250.048828"/>
      <use xlink:href="#ArialMT-61" x="272.265625"/>
      <use xlink:href="#ArialMT-74" x="327.880859"/>
      <use xlink:href="#ArialMT-69" x="355.664062"/>
      <use xlink:href="#ArialMT-6f" x="377.880859"/>
      <use xlink:href="#ArialMT-6e" x="433.496094"/>
      <use xlink:href="#ArialMT-20" x="489.111328"/>
      <use xlink:href="#ArialMT-70" x="516.894531"/>
      <use xlink:href="#ArialMT-72" x="572.509766"/>
      <use xlink:href="#ArialMT-65" x="605.810547"/>
      <use xlink:href="#ArialMT-64" x="661.425781"/>
      <use xlink:href="#ArialMT-69" x="717.041016"/>
      <use xlink:href="#ArialMT-63" x="739.257812"/>
      <use xlink:href="#ArialMT-74" x="789.257812"/>
      <use xlink:href="#ArialMT-65" x="817.041016"/>
      <use xlink:href="#ArialMT-64" x="872.65625"/>
      <use xlink:href="#ArialMT-2f" x="928.271484"/>
      <use xlink:href="#ArialMT-67" x="956.054688"/>
      <use xlink:href="#ArialMT-72" x="1011.669922"/>
      <use xlink:href="#ArialMT-6f" x="1044.970703"/>
      <use xlink:href="#ArialMT-75" x="1100.585938"/>
      <use xlink:href="#ArialMT-6e" x="1156.201172"/>
      <use xlink:href="#ArialMT-64" x="1211.816406"/>
      <use xlink:href="#ArialMT-74" x="1267.431641"/>
      <use xlink:href="#ArialMT-72" x="1295.214844"/>
      <use xlink:href="#ArialMT-75" x="1328.515625"/>
      <use xlink:href="#ArialMT-74" x="1384.130859"/>
      <use xlink:href="#ArialMT-68" x="1411.914062"/>
     </g>
    </g>
   </g>
   <g id="matplotlib.axis_2">
    <g id="ytick_1">
     <g id="line2d_1">
      <path d="M 72 133.92 
L 518.4 133.92 
" clip-path="url(#p05ce0ee9d2)" style="fill: none; stroke: #cccccc; stroke-linecap: round"/>
     </g>
     <g id="text_7">
      <!-- EAAT1 -->
      <g style="fill: #262626" transform="translate(-5.572812 141.793594) scale(0.22 -0.22)">
       <defs>
        <path id="ArialMT-45" d="M 506 0 
L 506 4581 
L 3819 4581 
L 3819 4041 
L 1113 4041 
L 1113 2638 
L 3647 2638 
L 3647 2100 
L 1113 2100 
L 1113 541 
L 3925 541 
L 3925 0 
L 506 0 
z
" transform="scale(0.015625)"/>
        <path id="ArialMT-41" d="M -9 0 
L 1750 4581 
L 2403 4581 
L 4278 0 
L 3588 0 
L 3053 1388 
L 1138 1388 
L 634 0 
L -9 0 
z
M 1313 1881 
L 2866 1881 
L 2388 3150 
Q 2169 3728 2063 4100 
Q 1975 3659 1816 3225 
L 1313 1881 
z
" transform="scale(0.015625)"/>
        <path id="ArialMT-54" d="M 1659 0 
L 1659 4041 
L 150 4041 
L 150 4581 
L 3781 4581 
L 3781 4041 
L 2266 4041 
L 2266 0 
L 1659 0 
z
" transform="scale(0.015625)"/>
        <path id="ArialMT-31" d="M 2384 0 
L 1822 0 
L 1822 3584 
Q 1619 3391 1289 3197 
Q 959 3003 697 2906 
L 697 3450 
Q 1169 3672 1522 3987 
Q 1875 4303 2022 4600 
L 2384 4600 
L 2384 0 
z
" transform="scale(0.015625)"/>
       </defs>
       <use xlink:href="#ArialMT-45"/>
       <use xlink:href="#ArialMT-41" x="66.699219"/>
       <use xlink:href="#ArialMT-41" x="133.398438"/>
       <use xlink:href="#ArialMT-54" x="192.722656"/>
       <use xlink:href="#ArialMT-31" x="253.806641"/>
      </g>
     </g>
    </g>
    <g id="ytick_2">
     <g id="line2d_2">
      <path d="M 72 154.775172 
L 518.4 154.775172 
" clip-path="url(#p05ce0ee9d2)" style="fill: none; stroke: #cccccc; stroke-linecap: round"/>
     </g>
     <g id="text_8">
      <!-- VMAT2 -->
      <g style="fill: #262626" transform="translate(-9.223438 162.648766) scale(0.22 -0.22)">
       <defs>
        <path id="ArialMT-56" d="M 1803 0 
L 28 4581 
L 684 4581 
L 1875 1253 
Q 2019 853 2116 503 
Q 2222 878 2363 1253 
L 3600 4581 
L 4219 4581 
L 2425 0 
L 1803 0 
z
" transform="scale(0.015625)"/>
        <path id="ArialMT-4d" d="M 475 0 
L 475 4581 
L 1388 4581 
L 2472 1338 
Q 2622 884 2691 659 
Q 2769 909 2934 1394 
L 4031 4581 
L 4847 4581 
L 4847 0 
L 4263 0 
L 4263 3834 
L 2931 0 
L 2384 0 
L 1059 3900 
L 1059 0 
L 475 0 
z
" transform="scale(0.015625)"/>
        <path id="ArialMT-32" d="M 3222 541 
L 3222 0 
L 194 0 
Q 188 203 259 391 
Q 375 700 629 1000 
Q 884 1300 1366 1694 
Q 2113 2306 2375 2664 
Q 2638 3022 2638 3341 
Q 2638 3675 2398 3904 
Q 2159 4134 1775 4134 
Q 1369 4134 1125 3890 
Q 881 3647 878 3216 
L 300 3275 
Q 359 3922 746 4261 
Q 1134 4600 1788 4600 
Q 2447 4600 2831 4234 
Q 3216 3869 3216 3328 
Q 3216 3053 3103 2787 
Q 2991 2522 2730 2228 
Q 2469 1934 1863 1422 
Q 1356 997 1212 845 
Q 1069 694 975 541 
L 3222 541 
z
" transform="scale(0.015625)"/>
       </defs>
       <use xlink:href="#ArialMT-56"/>
       <use xlink:href="#ArialMT-4d" x="66.699219"/>
       <use xlink:href="#ArialMT-41" x="150"/>
       <use xlink:href="#ArialMT-54" x="209.324219"/>
       <use xlink:href="#ArialMT-32" x="270.408203"/>
      </g>
     </g>
    </g>
    <g id="ytick_3">
     <g id="line2d_3">
      <path d="M 72 175.630345 
L 518.4 175.630345 
" clip-path="url(#p05ce0ee9d2)" style="fill: none; stroke: #cccccc; stroke-linecap: round"/>
     </g>
     <g id="text_9">
      <!-- Synaptobrevin2 -->
      <g style="fill: #262626" transform="translate(-90.3725 183.638001) scale(0.22 -0.22)">
       <defs>
        <path id="ArialMT-53" d="M 288 1472 
L 859 1522 
Q 900 1178 1048 958 
Q 1197 738 1509 602 
Q 1822 466 2213 466 
Q 2559 466 2825 569 
Q 3091 672 3220 851 
Q 3350 1031 3350 1244 
Q 3350 1459 3225 1620 
Q 3100 1781 2813 1891 
Q 2628 1963 1997 2114 
Q 1366 2266 1113 2400 
Q 784 2572 623 2826 
Q 463 3081 463 3397 
Q 463 3744 659 4045 
Q 856 4347 1234 4503 
Q 1613 4659 2075 4659 
Q 2584 4659 2973 4495 
Q 3363 4331 3572 4012 
Q 3781 3694 3797 3291 
L 3216 3247 
Q 3169 3681 2898 3903 
Q 2628 4125 2100 4125 
Q 1550 4125 1298 3923 
Q 1047 3722 1047 3438 
Q 1047 3191 1225 3031 
Q 1400 2872 2139 2705 
Q 2878 2538 3153 2413 
Q 3553 2228 3743 1945 
Q 3934 1663 3934 1294 
Q 3934 928 3725 604 
Q 3516 281 3123 101 
Q 2731 -78 2241 -78 
Q 1619 -78 1198 103 
Q 778 284 539 648 
Q 300 1013 288 1472 
z
" transform="scale(0.015625)"/>
        <path id="ArialMT-79" d="M 397 -1278 
L 334 -750 
Q 519 -800 656 -800 
Q 844 -800 956 -737 
Q 1069 -675 1141 -563 
Q 1194 -478 1313 -144 
Q 1328 -97 1363 -6 
L 103 3319 
L 709 3319 
L 1400 1397 
Q 1534 1031 1641 628 
Q 1738 1016 1872 1384 
L 2581 3319 
L 3144 3319 
L 1881 -56 
Q 1678 -603 1566 -809 
Q 1416 -1088 1222 -1217 
Q 1028 -1347 759 -1347 
Q 597 -1347 397 -1278 
z
" transform="scale(0.015625)"/>
        <path id="ArialMT-62" d="M 941 0 
L 419 0 
L 419 4581 
L 981 4581 
L 981 2947 
Q 1338 3394 1891 3394 
Q 2197 3394 2470 3270 
Q 2744 3147 2920 2923 
Q 3097 2700 3197 2384 
Q 3297 2069 3297 1709 
Q 3297 856 2875 390 
Q 2453 -75 1863 -75 
Q 1275 -75 941 416 
L 941 0 
z
M 934 1684 
Q 934 1088 1097 822 
Q 1363 388 1816 388 
Q 2184 388 2453 708 
Q 2722 1028 2722 1663 
Q 2722 2313 2464 2622 
Q 2206 2931 1841 2931 
Q 1472 2931 1203 2611 
Q 934 2291 934 1684 
z
" transform="scale(0.015625)"/>
        <path id="ArialMT-76" d="M 1344 0 
L 81 3319 
L 675 3319 
L 1388 1331 
Q 1503 1009 1600 663 
Q 1675 925 1809 1294 
L 2547 3319 
L 3125 3319 
L 1869 0 
L 1344 0 
z
" transform="scale(0.015625)"/>
       </defs>
       <use xlink:href="#ArialMT-53"/>
       <use xlink:href="#ArialMT-79" x="66.699219"/>
       <use xlink:href="#ArialMT-6e" x="116.699219"/>
       <use xlink:href="#ArialMT-61" x="172.314453"/>
       <use xlink:href="#ArialMT-70" x="227.929688"/>
       <use xlink:href="#ArialMT-74" x="283.544922"/>
       <use xlink:href="#ArialMT-6f" x="311.328125"/>
       <use xlink:href="#ArialMT-62" x="366.943359"/>
       <use xlink:href="#ArialMT-72" x="422.558594"/>
       <use xlink:href="#ArialMT-65" x="455.859375"/>
       <use xlink:href="#ArialMT-76" x="511.474609"/>
       <use xlink:href="#ArialMT-69" x="561.474609"/>
       <use xlink:href="#ArialMT-6e" x="583.691406"/>
       <use xlink:href="#ArialMT-32" x="639.306641"/>
      </g>
     </g>
    </g>
    <g id="ytick_4">
     <g id="line2d_4">
      <path d="M 72 196.485517 
L 518.4 196.485517 
" clip-path="url(#p05ce0ee9d2)" style="fill: none; stroke: #cccccc; stroke-linecap: round"/>
     </g>
     <g id="text_10">
      <!-- LRRK2 -->
      <g style="fill: #262626" transform="translate(-8.419062 204.359111) scale(0.22 -0.22)">
       <defs>
        <path id="ArialMT-4c" d="M 469 0 
L 469 4581 
L 1075 4581 
L 1075 541 
L 3331 541 
L 3331 0 
L 469 0 
z
" transform="scale(0.015625)"/>
        <path id="ArialMT-52" d="M 503 0 
L 503 4581 
L 2534 4581 
Q 3147 4581 3465 4457 
Q 3784 4334 3975 4021 
Q 4166 3709 4166 3331 
Q 4166 2844 3850 2509 
Q 3534 2175 2875 2084 
Q 3116 1969 3241 1856 
Q 3506 1613 3744 1247 
L 4541 0 
L 3778 0 
L 3172 953 
Q 2906 1366 2734 1584 
Q 2563 1803 2427 1890 
Q 2291 1978 2150 2013 
Q 2047 2034 1813 2034 
L 1109 2034 
L 1109 0 
L 503 0 
z
M 1109 2559 
L 2413 2559 
Q 2828 2559 3062 2645 
Q 3297 2731 3419 2920 
Q 3541 3109 3541 3331 
Q 3541 3656 3305 3865 
Q 3069 4075 2559 4075 
L 1109 4075 
L 1109 2559 
z
" transform="scale(0.015625)"/>
        <path id="ArialMT-4b" d="M 469 0 
L 469 4581 
L 1075 4581 
L 1075 2309 
L 3350 4581 
L 4172 4581 
L 2250 2725 
L 4256 0 
L 3456 0 
L 1825 2319 
L 1075 1588 
L 1075 0 
L 469 0 
z
" transform="scale(0.015625)"/>
       </defs>
       <use xlink:href="#ArialMT-4c"/>
       <use xlink:href="#ArialMT-52" x="55.615234"/>
       <use xlink:href="#ArialMT-52" x="127.832031"/>
       <use xlink:href="#ArialMT-4b" x="200.048828"/>
       <use xlink:href="#ArialMT-32" x="266.748047"/>
      </g>
     </g>
    </g>
    <g id="ytick_5">
     <g id="line2d_5">
      <path d="M 72 217.34069 
L 518.4 217.34069 
" clip-path="url(#p05ce0ee9d2)" style="fill: none; stroke: #cccccc; stroke-linecap: round"/>
     </g>
     <g id="text_11">
      <!-- a-Synuclein -->
      <g style="fill: #262626" transform="translate(-52.446562 225.348346) scale(0.22 -0.22)">
       <defs>
        <path id="ArialMT-2d" d="M 203 1375 
L 203 1941 
L 1931 1941 
L 1931 1375 
L 203 1375 
z
" transform="scale(0.015625)"/>
       </defs>
       <use xlink:href="#ArialMT-61"/>
       <use xlink:href="#ArialMT-2d" x="55.615234"/>
       <use xlink:href="#ArialMT-53" x="88.916016"/>
       <use xlink:href="#ArialMT-79" x="155.615234"/>
       <use xlink:href="#ArialMT-6e" x="205.615234"/>
       <use xlink:href="#ArialMT-75" x="261.230469"/>
       <use xlink:href="#ArialMT-63" x="316.845703"/>
       <use xlink:href="#ArialMT-6c" x="366.845703"/>
       <use xlink:href="#ArialMT-65" x="389.0625"/>
       <use xlink:href="#ArialMT-69" x="444.677734"/>
       <use xlink:href="#ArialMT-6e" x="466.894531"/>
      </g>
     </g>
    </g>
    <g id="ytick_6">
     <g id="line2d_6">
      <path d="M 72 238.195862 
L 518.4 238.195862 
" clip-path="url(#p05ce0ee9d2)" style="fill: none; stroke: #cccccc; stroke-linecap: round"/>
     </g>
     <g id="text_12">
      <!-- GFAP -->
      <g style="fill: #262626" transform="translate(3.811563 246.069456) scale(0.22 -0.22)">
       <defs>
        <path id="ArialMT-47" d="M 2638 1797 
L 2638 2334 
L 4578 2338 
L 4578 638 
Q 4131 281 3656 101 
Q 3181 -78 2681 -78 
Q 2006 -78 1454 211 
Q 903 500 622 1047 
Q 341 1594 341 2269 
Q 341 2938 620 3517 
Q 900 4097 1425 4378 
Q 1950 4659 2634 4659 
Q 3131 4659 3532 4498 
Q 3934 4338 4162 4050 
Q 4391 3763 4509 3300 
L 3963 3150 
Q 3859 3500 3706 3700 
Q 3553 3900 3268 4020 
Q 2984 4141 2638 4141 
Q 2222 4141 1919 4014 
Q 1616 3888 1430 3681 
Q 1244 3475 1141 3228 
Q 966 2803 966 2306 
Q 966 1694 1177 1281 
Q 1388 869 1791 669 
Q 2194 469 2647 469 
Q 3041 469 3416 620 
Q 3791 772 3984 944 
L 3984 1797 
L 2638 1797 
z
" transform="scale(0.015625)"/>
        <path id="ArialMT-46" d="M 525 0 
L 525 4581 
L 3616 4581 
L 3616 4041 
L 1131 4041 
L 1131 2622 
L 3281 2622 
L 3281 2081 
L 1131 2081 
L 1131 0 
L 525 0 
z
" transform="scale(0.015625)"/>
        <path id="ArialMT-50" d="M 494 0 
L 494 4581 
L 2222 4581 
Q 2678 4581 2919 4538 
Q 3256 4481 3484 4323 
Q 3713 4166 3852 3881 
Q 3991 3597 3991 3256 
Q 3991 2672 3619 2267 
Q 3247 1863 2275 1863 
L 1100 1863 
L 1100 0 
L 494 0 
z
M 1100 2403 
L 2284 2403 
Q 2872 2403 3119 2622 
Q 3366 2841 3366 3238 
Q 3366 3525 3220 3729 
Q 3075 3934 2838 4000 
Q 2684 4041 2272 4041 
L 1100 4041 
L 1100 2403 
z
" transform="scale(0.015625)"/>
       </defs>
       <use xlink:href="#ArialMT-47"/>
       <use xlink:href="#ArialMT-46" x="77.783203"/>
       <use xlink:href="#ArialMT-41" x="133.367188"/>
       <use xlink:href="#ArialMT-50" x="200.066406"/>
      </g>
     </g>
    </g>
    <g id="ytick_7">
     <g id="line2d_7">
      <path d="M 72 259.051034 
L 518.4 259.051034 
" clip-path="url(#p05ce0ee9d2)" style="fill: none; stroke: #cccccc; stroke-linecap: round"/>
     </g>
     <g id="text_13">
      <!-- PARKIN -->
      <g style="fill: #262626" transform="translate(-17.789687 266.924628) scale(0.22 -0.22)">
       <defs>
        <path id="ArialMT-49" d="M 597 0 
L 597 4581 
L 1203 4581 
L 1203 0 
L 597 0 
z
" transform="scale(0.015625)"/>
        <path id="ArialMT-4e" d="M 488 0 
L 488 4581 
L 1109 4581 
L 3516 984 
L 3516 4581 
L 4097 4581 
L 4097 0 
L 3475 0 
L 1069 3600 
L 1069 0 
L 488 0 
z
" transform="scale(0.015625)"/>
       </defs>
       <use xlink:href="#ArialMT-50"/>
       <use xlink:href="#ArialMT-41" x="59.324219"/>
       <use xlink:href="#ArialMT-52" x="126.023438"/>
       <use xlink:href="#ArialMT-4b" x="198.240234"/>
       <use xlink:href="#ArialMT-49" x="264.939453"/>
       <use xlink:href="#ArialMT-4e" x="292.722656"/>
      </g>
     </g>
    </g>
    <g id="ytick_8">
     <g id="line2d_8">
      <path d="M 72 279.906207 
L 518.4 279.906207 
" clip-path="url(#p05ce0ee9d2)" style="fill: none; stroke: #cccccc; stroke-linecap: round"/>
     </g>
     <g id="text_14">
      <!-- Casp3_Acti -->
      <g style="fill: #262626" transform="translate(-49.999062 287.913863) scale(0.22 -0.22)">
       <defs>
        <path id="ArialMT-73" d="M 197 991 
L 753 1078 
Q 800 744 1014 566 
Q 1228 388 1613 388 
Q 2000 388 2187 545 
Q 2375 703 2375 916 
Q 2375 1106 2209 1216 
Q 2094 1291 1634 1406 
Q 1016 1563 777 1677 
Q 538 1791 414 1992 
Q 291 2194 291 2438 
Q 291 2659 392 2848 
Q 494 3038 669 3163 
Q 800 3259 1026 3326 
Q 1253 3394 1513 3394 
Q 1903 3394 2198 3281 
Q 2494 3169 2634 2976 
Q 2775 2784 2828 2463 
L 2278 2388 
Q 2241 2644 2061 2787 
Q 1881 2931 1553 2931 
Q 1166 2931 1000 2803 
Q 834 2675 834 2503 
Q 834 2394 903 2306 
Q 972 2216 1119 2156 
Q 1203 2125 1616 2013 
Q 2213 1853 2448 1751 
Q 2684 1650 2818 1456 
Q 2953 1263 2953 975 
Q 2953 694 2789 445 
Q 2625 197 2315 61 
Q 2006 -75 1616 -75 
Q 969 -75 630 194 
Q 291 463 197 991 
z
" transform="scale(0.015625)"/>
        <path id="ArialMT-33" d="M 269 1209 
L 831 1284 
Q 928 806 1161 595 
Q 1394 384 1728 384 
Q 2125 384 2398 659 
Q 2672 934 2672 1341 
Q 2672 1728 2419 1979 
Q 2166 2231 1775 2231 
Q 1616 2231 1378 2169 
L 1441 2663 
Q 1497 2656 1531 2656 
Q 1891 2656 2178 2843 
Q 2466 3031 2466 3422 
Q 2466 3731 2256 3934 
Q 2047 4138 1716 4138 
Q 1388 4138 1169 3931 
Q 950 3725 888 3313 
L 325 3413 
Q 428 3978 793 4289 
Q 1159 4600 1703 4600 
Q 2078 4600 2393 4439 
Q 2709 4278 2876 4000 
Q 3044 3722 3044 3409 
Q 3044 3113 2884 2869 
Q 2725 2625 2413 2481 
Q 2819 2388 3044 2092 
Q 3269 1797 3269 1353 
Q 3269 753 2831 336 
Q 2394 -81 1725 -81 
Q 1122 -81 723 278 
Q 325 638 269 1209 
z
" transform="scale(0.015625)"/>
        <path id="ArialMT-5f" d="M -97 -1272 
L -97 -866 
L 3631 -866 
L 3631 -1272 
L -97 -1272 
z
" transform="scale(0.015625)"/>
       </defs>
       <use xlink:href="#ArialMT-43"/>
       <use xlink:href="#ArialMT-61" x="72.216797"/>
       <use xlink:href="#ArialMT-73" x="127.832031"/>
       <use xlink:href="#ArialMT-70" x="177.832031"/>
       <use xlink:href="#ArialMT-33" x="233.447266"/>
       <use xlink:href="#ArialMT-5f" x="289.0625"/>
       <use xlink:href="#ArialMT-41" x="344.677734"/>
       <use xlink:href="#ArialMT-63" x="411.376953"/>
       <use xlink:href="#ArialMT-74" x="461.376953"/>
       <use xlink:href="#ArialMT-69" x="489.160156"/>
      </g>
     </g>
    </g>
    <g id="ytick_9">
     <g id="line2d_9">
      <path d="M 72 300.761379 
L 518.4 300.761379 
" clip-path="url(#p05ce0ee9d2)" style="fill: none; stroke: #cccccc; stroke-linecap: round"/>
     </g>
     <g id="text_15">
      <!-- BIN1 -->
      <g style="fill: #262626" transform="translate(13.59125 308.634973) scale(0.22 -0.22)">
       <defs>
        <path id="ArialMT-42" d="M 469 0 
L 469 4581 
L 2188 4581 
Q 2713 4581 3030 4442 
Q 3347 4303 3526 4014 
Q 3706 3725 3706 3409 
Q 3706 3116 3547 2856 
Q 3388 2597 3066 2438 
Q 3481 2316 3704 2022 
Q 3928 1728 3928 1328 
Q 3928 1006 3792 729 
Q 3656 453 3456 303 
Q 3256 153 2954 76 
Q 2653 0 2216 0 
L 469 0 
z
M 1075 2656 
L 2066 2656 
Q 2469 2656 2644 2709 
Q 2875 2778 2992 2937 
Q 3109 3097 3109 3338 
Q 3109 3566 3000 3739 
Q 2891 3913 2687 3977 
Q 2484 4041 1991 4041 
L 1075 4041 
L 1075 2656 
z
M 1075 541 
L 2216 541 
Q 2509 541 2628 563 
Q 2838 600 2978 687 
Q 3119 775 3209 942 
Q 3300 1109 3300 1328 
Q 3300 1584 3169 1773 
Q 3038 1963 2805 2039 
Q 2572 2116 2134 2116 
L 1075 2116 
L 1075 541 
z
" transform="scale(0.015625)"/>
       </defs>
       <use xlink:href="#ArialMT-42"/>
       <use xlink:href="#ArialMT-49" x="66.699219"/>
       <use xlink:href="#ArialMT-4e" x="94.482422"/>
       <use xlink:href="#ArialMT-31" x="166.699219"/>
      </g>
     </g>
    </g>
    <g id="ytick_10">
     <g id="line2d_10">
      <path d="M 72 321.616552 
L 518.4 321.616552 
" clip-path="url(#p05ce0ee9d2)" style="fill: none; stroke: #cccccc; stroke-linecap: round"/>
     </g>
     <g id="text_16">
      <!-- TMEM230_C20orf30 -->
      <g style="fill: #262626" transform="translate(-141.694375 329.624208) scale(0.22 -0.22)">
       <defs>
        <path id="ArialMT-66" d="M 556 0 
L 556 2881 
L 59 2881 
L 59 3319 
L 556 3319 
L 556 3672 
Q 556 4006 616 4169 
Q 697 4388 901 4523 
Q 1106 4659 1475 4659 
Q 1713 4659 2000 4603 
L 1916 4113 
Q 1741 4144 1584 4144 
Q 1328 4144 1222 4034 
Q 1116 3925 1116 3625 
L 1116 3319 
L 1763 3319 
L 1763 2881 
L 1116 2881 
L 1116 0 
L 556 0 
z
" transform="scale(0.015625)"/>
       </defs>
       <use xlink:href="#ArialMT-54"/>
       <use xlink:href="#ArialMT-4d" x="61.083984"/>
       <use xlink:href="#ArialMT-45" x="144.384766"/>
       <use xlink:href="#ArialMT-4d" x="211.083984"/>
       <use xlink:href="#ArialMT-32" x="294.384766"/>
       <use xlink:href="#ArialMT-33" x="350"/>
       <use xlink:href="#ArialMT-30" x="405.615234"/>
       <use xlink:href="#ArialMT-5f" x="461.230469"/>
       <use xlink:href="#ArialMT-43" x="516.845703"/>
       <use xlink:href="#ArialMT-32" x="589.0625"/>
       <use xlink:href="#ArialMT-30" x="644.677734"/>
       <use xlink:href="#ArialMT-6f" x="700.292969"/>
       <use xlink:href="#ArialMT-72" x="755.908203"/>
       <use xlink:href="#ArialMT-66" x="789.208984"/>
       <use xlink:href="#ArialMT-33" x="816.992188"/>
       <use xlink:href="#ArialMT-30" x="872.607422"/>
      </g>
     </g>
    </g>
    <g id="ytick_11">
     <g id="line2d_11">
      <path d="M 72 342.471724 
L 518.4 342.471724 
" clip-path="url(#p05ce0ee9d2)" style="fill: none; stroke: #cccccc; stroke-linecap: round"/>
     </g>
     <g id="text_17">
      <!-- CD47 -->
      <g style="fill: #262626" transform="translate(6.255625 350.345318) scale(0.22 -0.22)">
       <defs>
        <path id="ArialMT-44" d="M 494 0 
L 494 4581 
L 2072 4581 
Q 2606 4581 2888 4516 
Q 3281 4425 3559 4188 
Q 3922 3881 4101 3404 
Q 4281 2928 4281 2316 
Q 4281 1794 4159 1391 
Q 4038 988 3847 723 
Q 3656 459 3429 307 
Q 3203 156 2883 78 
Q 2563 0 2147 0 
L 494 0 
z
M 1100 541 
L 2078 541 
Q 2531 541 2789 625 
Q 3047 709 3200 863 
Q 3416 1078 3536 1442 
Q 3656 1806 3656 2325 
Q 3656 3044 3420 3430 
Q 3184 3816 2847 3947 
Q 2603 4041 2063 4041 
L 1100 4041 
L 1100 541 
z
" transform="scale(0.015625)"/>
       </defs>
       <use xlink:href="#ArialMT-43"/>
       <use xlink:href="#ArialMT-44" x="72.216797"/>
       <use xlink:href="#ArialMT-34" x="144.433594"/>
       <use xlink:href="#ArialMT-37" x="200.048828"/>
      </g>
     </g>
    </g>
    <g id="ytick_12">
     <g id="line2d_12">
      <path d="M 72 363.326897 
L 518.4 363.326897 
" clip-path="url(#p05ce0ee9d2)" style="fill: none; stroke: #cccccc; stroke-linecap: round"/>
     </g>
     <g id="text_18">
      <!-- GATM_1 -->
      <g style="fill: #262626" transform="translate(-23.894688 371.334553) scale(0.22 -0.22)">
       <use xlink:href="#ArialMT-47"/>
       <use xlink:href="#ArialMT-41" x="77.783203"/>
       <use xlink:href="#ArialMT-54" x="137.107422"/>
       <use xlink:href="#ArialMT-4d" x="198.191406"/>
       <use xlink:href="#ArialMT-5f" x="281.492188"/>
       <use xlink:href="#ArialMT-31" x="337.107422"/>
      </g>
     </g>
    </g>
    <g id="ytick_13">
     <g id="line2d_13">
      <path d="M 72 384.182069 
L 518.4 384.182069 
" clip-path="url(#p05ce0ee9d2)" style="fill: none; stroke: #cccccc; stroke-linecap: round"/>
     </g>
     <g id="text_19">
      <!-- VGLUT -->
      <g style="fill: #262626" transform="translate(-10.845938 392.055663) scale(0.22 -0.22)">
       <defs>
        <path id="ArialMT-55" d="M 3500 4581 
L 4106 4581 
L 4106 1934 
Q 4106 1244 3950 837 
Q 3794 431 3386 176 
Q 2978 -78 2316 -78 
Q 1672 -78 1262 144 
Q 853 366 678 786 
Q 503 1206 503 1934 
L 503 4581 
L 1109 4581 
L 1109 1938 
Q 1109 1341 1220 1058 
Q 1331 775 1601 622 
Q 1872 469 2263 469 
Q 2931 469 3215 772 
Q 3500 1075 3500 1938 
L 3500 4581 
z
" transform="scale(0.015625)"/>
       </defs>
       <use xlink:href="#ArialMT-56"/>
       <use xlink:href="#ArialMT-47" x="66.699219"/>
       <use xlink:href="#ArialMT-4c" x="144.482422"/>
       <use xlink:href="#ArialMT-55" x="200.097656"/>
       <use xlink:href="#ArialMT-54" x="272.314453"/>
      </g>
     </g>
    </g>
    <g id="ytick_14">
     <g id="line2d_14">
      <path d="M 72 405.037241 
L 518.4 405.037241 
" clip-path="url(#p05ce0ee9d2)" style="fill: none; stroke: #cccccc; stroke-linecap: round"/>
     </g>
     <g id="text_20">
      <!-- DAT -->
      <g style="fill: #262626" transform="translate(20.1225 412.910835) scale(0.22 -0.22)">
       <use xlink:href="#ArialMT-44"/>
       <use xlink:href="#ArialMT-41" x="72.216797"/>
       <use xlink:href="#ArialMT-54" x="131.541016"/>
      </g>
     </g>
    </g>
    <g id="ytick_15">
     <g id="line2d_15">
      <path d="M 72 425.892414 
L 518.4 425.892414 
" clip-path="url(#p05ce0ee9d2)" style="fill: none; stroke: #cccccc; stroke-linecap: round"/>
     </g>
     <g id="text_21">
      <!-- p-Tau_S202_T205 -->
      <g style="fill: #262626" transform="translate(-118.501563 433.90007) scale(0.22 -0.22)">
       <use xlink:href="#ArialMT-70"/>
       <use xlink:href="#ArialMT-2d" x="55.615234"/>
       <use xlink:href="#ArialMT-54" x="88.916016"/>
       <use xlink:href="#ArialMT-61" x="138.875"/>
       <use xlink:href="#ArialMT-75" x="194.490234"/>
       <use xlink:href="#ArialMT-5f" x="250.105469"/>
       <use xlink:href="#ArialMT-53" x="305.720703"/>
       <use xlink:href="#ArialMT-32" x="372.419922"/>
       <use xlink:href="#ArialMT-30" x="428.035156"/>
       <use xlink:href="#ArialMT-32" x="483.650391"/>
       <use xlink:href="#ArialMT-5f" x="539.265625"/>
       <use xlink:href="#ArialMT-54" x="594.880859"/>
       <use xlink:href="#ArialMT-32" x="655.964844"/>
       <use xlink:href="#ArialMT-30" x="711.580078"/>
       <use xlink:href="#ArialMT-35" x="767.195312"/>
      </g>
     </g>
    </g>
    <g id="ytick_16">
     <g id="line2d_16">
      <path d="M 72 446.747586 
L 518.4 446.747586 
" clip-path="url(#p05ce0ee9d2)" style="fill: none; stroke: #cccccc; stroke-linecap: round"/>
     </g>
     <g id="text_22">
      <!-- a-Synuclein_pS129 -->
      <g style="fill: #262626" transform="translate(-128.291562 454.755242) scale(0.22 -0.22)">
       <defs>
        <path id="ArialMT-39" d="M 350 1059 
L 891 1109 
Q 959 728 1153 556 
Q 1347 384 1650 384 
Q 1909 384 2104 503 
Q 2300 622 2425 820 
Q 2550 1019 2634 1356 
Q 2719 1694 2719 2044 
Q 2719 2081 2716 2156 
Q 2547 1888 2255 1720 
Q 1963 1553 1622 1553 
Q 1053 1553 659 1965 
Q 266 2378 266 3053 
Q 266 3750 677 4175 
Q 1088 4600 1706 4600 
Q 2153 4600 2523 4359 
Q 2894 4119 3086 3673 
Q 3278 3228 3278 2384 
Q 3278 1506 3087 986 
Q 2897 466 2520 194 
Q 2144 -78 1638 -78 
Q 1100 -78 759 220 
Q 419 519 350 1059 
z
M 2653 3081 
Q 2653 3566 2395 3850 
Q 2138 4134 1775 4134 
Q 1400 4134 1122 3828 
Q 844 3522 844 3034 
Q 844 2597 1108 2323 
Q 1372 2050 1759 2050 
Q 2150 2050 2401 2323 
Q 2653 2597 2653 3081 
z
" transform="scale(0.015625)"/>
       </defs>
       <use xlink:href="#ArialMT-61"/>
       <use xlink:href="#ArialMT-2d" x="55.615234"/>
       <use xlink:href="#ArialMT-53" x="88.916016"/>
       <use xlink:href="#ArialMT-79" x="155.615234"/>
       <use xlink:href="#ArialMT-6e" x="205.615234"/>
       <use xlink:href="#ArialMT-75" x="261.230469"/>
       <use xlink:href="#ArialMT-63" x="316.845703"/>
       <use xlink:href="#ArialMT-6c" x="366.845703"/>
       <use xlink:href="#ArialMT-65" x="389.0625"/>
       <use xlink:href="#ArialMT-69" x="444.677734"/>
       <use xlink:href="#ArialMT-6e" x="466.894531"/>
       <use xlink:href="#ArialMT-5f" x="522.509766"/>
       <use xlink:href="#ArialMT-70" x="578.125"/>
       <use xlink:href="#ArialMT-53" x="633.740234"/>
       <use xlink:href="#ArialMT-31" x="700.439453"/>
       <use xlink:href="#ArialMT-32" x="756.054688"/>
       <use xlink:href="#ArialMT-39" x="811.669922"/>
      </g>
     </g>
    </g>
    <g id="ytick_17">
     <g id="line2d_17">
      <path d="M 72 467.602759 
L 518.4 467.602759 
" clip-path="url(#p05ce0ee9d2)" style="fill: none; stroke: #cccccc; stroke-linecap: round"/>
     </g>
     <g id="text_23">
      <!-- DJ-1_PARK7 -->
      <g style="fill: #262626" transform="translate(-66.705312 475.509009) scale(0.22 -0.22)">
       <defs>
        <path id="ArialMT-4a" d="M 184 1300 
L 731 1375 
Q 753 850 928 656 
Q 1103 463 1413 463 
Q 1641 463 1806 567 
Q 1972 672 2034 851 
Q 2097 1031 2097 1425 
L 2097 4581 
L 2703 4581 
L 2703 1459 
Q 2703 884 2564 568 
Q 2425 253 2123 87 
Q 1822 -78 1416 -78 
Q 813 -78 492 269 
Q 172 616 184 1300 
z
" transform="scale(0.015625)"/>
       </defs>
       <use xlink:href="#ArialMT-44"/>
       <use xlink:href="#ArialMT-4a" x="72.216797"/>
       <use xlink:href="#ArialMT-2d" x="122.216797"/>
       <use xlink:href="#ArialMT-31" x="155.517578"/>
       <use xlink:href="#ArialMT-5f" x="211.132812"/>
       <use xlink:href="#ArialMT-50" x="266.748047"/>
       <use xlink:href="#ArialMT-41" x="326.072266"/>
       <use xlink:href="#ArialMT-52" x="392.771484"/>
       <use xlink:href="#ArialMT-4b" x="464.988281"/>
       <use xlink:href="#ArialMT-37" x="531.6875"/>
      </g>
     </g>
    </g>
    <g id="ytick_18">
     <g id="line2d_18">
      <path d="M 72 488.457931 
L 518.4 488.457931 
" clip-path="url(#p05ce0ee9d2)" style="fill: none; stroke: #cccccc; stroke-linecap: round"/>
     </g>
     <g id="text_24">
      <!-- b-Amyloid_X42 -->
      <g style="fill: #262626" transform="translate(-86.680625 496.364181) scale(0.22 -0.22)">
       <defs>
        <path id="ArialMT-6d" d="M 422 0 
L 422 3319 
L 925 3319 
L 925 2853 
Q 1081 3097 1340 3245 
Q 1600 3394 1931 3394 
Q 2300 3394 2536 3241 
Q 2772 3088 2869 2813 
Q 3263 3394 3894 3394 
Q 4388 3394 4653 3120 
Q 4919 2847 4919 2278 
L 4919 0 
L 4359 0 
L 4359 2091 
Q 4359 2428 4304 2576 
Q 4250 2725 4106 2815 
Q 3963 2906 3769 2906 
Q 3419 2906 3187 2673 
Q 2956 2441 2956 1928 
L 2956 0 
L 2394 0 
L 2394 2156 
Q 2394 2531 2256 2718 
Q 2119 2906 1806 2906 
Q 1569 2906 1367 2781 
Q 1166 2656 1075 2415 
Q 984 2175 984 1722 
L 984 0 
L 422 0 
z
" transform="scale(0.015625)"/>
        <path id="ArialMT-58" d="M 28 0 
L 1800 2388 
L 238 4581 
L 959 4581 
L 1791 3406 
Q 2050 3041 2159 2844 
Q 2313 3094 2522 3366 
L 3444 4581 
L 4103 4581 
L 2494 2422 
L 4228 0 
L 3478 0 
L 2325 1634 
Q 2228 1775 2125 1941 
Q 1972 1691 1906 1597 
L 756 0 
L 28 0 
z
" transform="scale(0.015625)"/>
       </defs>
       <use xlink:href="#ArialMT-62"/>
       <use xlink:href="#ArialMT-2d" x="55.615234"/>
       <use xlink:href="#ArialMT-41" x="88.916016"/>
       <use xlink:href="#ArialMT-6d" x="155.615234"/>
       <use xlink:href="#ArialMT-79" x="238.916016"/>
       <use xlink:href="#ArialMT-6c" x="288.916016"/>
       <use xlink:href="#ArialMT-6f" x="311.132812"/>
       <use xlink:href="#ArialMT-69" x="366.748047"/>
       <use xlink:href="#ArialMT-64" x="388.964844"/>
       <use xlink:href="#ArialMT-5f" x="444.580078"/>
       <use xlink:href="#ArialMT-58" x="500.195312"/>
       <use xlink:href="#ArialMT-34" x="566.894531"/>
       <use xlink:href="#ArialMT-32" x="622.509766"/>
      </g>
     </g>
    </g>
    <g id="ytick_19">
     <g id="line2d_19">
      <path d="M 72 509.313103 
L 518.4 509.313103 
" clip-path="url(#p05ce0ee9d2)" style="fill: none; stroke: #cccccc; stroke-linecap: round"/>
     </g>
     <g id="text_25">
      <!-- Calreticulin -->
      <g style="fill: #262626" transform="translate(-46.314063 517.186697) scale(0.22 -0.22)">
       <use xlink:href="#ArialMT-43"/>
       <use xlink:href="#ArialMT-61" x="72.216797"/>
       <use xlink:href="#ArialMT-6c" x="127.832031"/>
       <use xlink:href="#ArialMT-72" x="150.048828"/>
       <use xlink:href="#ArialMT-65" x="183.349609"/>
       <use xlink:href="#ArialMT-74" x="238.964844"/>
       <use xlink:href="#ArialMT-69" x="266.748047"/>
       <use xlink:href="#ArialMT-63" x="288.964844"/>
       <use xlink:href="#ArialMT-75" x="338.964844"/>
       <use xlink:href="#ArialMT-6c" x="394.580078"/>
       <use xlink:href="#ArialMT-69" x="416.796875"/>
       <use xlink:href="#ArialMT-6e" x="439.013672"/>
      </g>
     </g>
    </g>
    <g id="ytick_20">
     <g id="line2d_20">
      <path d="M 72 530.168276 
L 518.4 530.168276 
" clip-path="url(#p05ce0ee9d2)" style="fill: none; stroke: #cccccc; stroke-linecap: round"/>
     </g>
     <g id="text_26">
      <!-- GBA1 -->
      <g style="fill: #262626" transform="translate(3.804688 538.04187) scale(0.22 -0.22)">
       <use xlink:href="#ArialMT-47"/>
       <use xlink:href="#ArialMT-42" x="77.783203"/>
       <use xlink:href="#ArialMT-41" x="144.482422"/>
       <use xlink:href="#ArialMT-31" x="211.181641"/>
      </g>
     </g>
    </g>
    <g id="ytick_21">
     <g id="line2d_21">
      <path d="M 72 551.023448 
L 518.4 551.023448 
" clip-path="url(#p05ce0ee9d2)" style="fill: none; stroke: #cccccc; stroke-linecap: round"/>
     </g>
     <g id="text_27">
      <!-- 3NT -->
      <g style="fill: #262626" transform="translate(20.940625 558.897042) scale(0.22 -0.22)">
       <use xlink:href="#ArialMT-33"/>
       <use xlink:href="#ArialMT-4e" x="55.615234"/>
       <use xlink:href="#ArialMT-54" x="127.832031"/>
      </g>
     </g>
    </g>
    <g id="ytick_22">
     <g id="line2d_22">
      <path d="M 72 571.878621 
L 518.4 571.878621 
" clip-path="url(#p05ce0ee9d2)" style="fill: none; stroke: #cccccc; stroke-linecap: round"/>
     </g>
     <g id="text_28">
      <!-- PrP_CD230 -->
      <g style="fill: #262626" transform="translate(-54.887187 579.886277) scale(0.22 -0.22)">
       <use xlink:href="#ArialMT-50"/>
       <use xlink:href="#ArialMT-72" x="66.699219"/>
       <use xlink:href="#ArialMT-50" x="100"/>
       <use xlink:href="#ArialMT-5f" x="166.699219"/>
       <use xlink:href="#ArialMT-43" x="222.314453"/>
       <use xlink:href="#ArialMT-44" x="294.53125"/>
       <use xlink:href="#ArialMT-32" x="366.748047"/>
       <use xlink:href="#ArialMT-33" x="422.363281"/>
       <use xlink:href="#ArialMT-30" x="477.978516"/>
      </g>
     </g>
    </g>
    <g id="ytick_23">
     <g id="line2d_23">
      <path d="M 72 592.733793 
L 518.4 592.733793 
" clip-path="url(#p05ce0ee9d2)" style="fill: none; stroke: #cccccc; stroke-linecap: round"/>
     </g>
     <g id="text_29">
      <!-- ApoE -->
      <g style="fill: #262626" transform="translate(8.6825 600.607387) scale(0.22 -0.22)">
       <use xlink:href="#ArialMT-41"/>
       <use xlink:href="#ArialMT-70" x="66.699219"/>
       <use xlink:href="#ArialMT-6f" x="122.314453"/>
       <use xlink:href="#ArialMT-45" x="177.929688"/>
      </g>
     </g>
    </g>
    <g id="ytick_24">
     <g id="line2d_24">
      <path d="M 72 613.588966 
L 518.4 613.588966 
" clip-path="url(#p05ce0ee9d2)" style="fill: none; stroke: #cccccc; stroke-linecap: round"/>
     </g>
     <g id="text_30">
      <!-- b-Amyloid_X40 -->
      <g style="fill: #262626" transform="translate(-86.680625 621.495216) scale(0.22 -0.22)">
       <use xlink:href="#ArialMT-62"/>
       <use xlink:href="#ArialMT-2d" x="55.615234"/>
       <use xlink:href="#ArialMT-41" x="88.916016"/>
       <use xlink:href="#ArialMT-6d" x="155.615234"/>
       <use xlink:href="#ArialMT-79" x="238.916016"/>
       <use xlink:href="#ArialMT-6c" x="288.916016"/>
       <use xlink:href="#ArialMT-6f" x="311.132812"/>
       <use xlink:href="#ArialMT-69" x="366.748047"/>
       <use xlink:href="#ArialMT-64" x="388.964844"/>
       <use xlink:href="#ArialMT-5f" x="444.580078"/>
       <use xlink:href="#ArialMT-58" x="500.195312"/>
       <use xlink:href="#ArialMT-34" x="566.894531"/>
       <use xlink:href="#ArialMT-30" x="622.509766"/>
      </g>
     </g>
    </g>
    <g id="ytick_25">
     <g id="line2d_25">
      <path d="M 72 634.444138 
L 518.4 634.444138 
" clip-path="url(#p05ce0ee9d2)" style="fill: none; stroke: #cccccc; stroke-linecap: round"/>
     </g>
     <g id="text_31">
      <!-- GAD65 -->
      <g style="fill: #262626" transform="translate(-9.642813 642.317732) scale(0.22 -0.22)">
       <use xlink:href="#ArialMT-47"/>
       <use xlink:href="#ArialMT-41" x="77.783203"/>
       <use xlink:href="#ArialMT-44" x="144.482422"/>
       <use xlink:href="#ArialMT-36" x="216.699219"/>
       <use xlink:href="#ArialMT-35" x="272.314453"/>
      </g>
     </g>
    </g>
    <g id="ytick_26">
     <g id="line2d_26">
      <path d="M 72 655.29931 
L 518.4 655.29931 
" clip-path="url(#p05ce0ee9d2)" style="fill: none; stroke: #cccccc; stroke-linecap: round"/>
     </g>
     <g id="text_32">
      <!-- GAMT_2 -->
      <g style="fill: #262626" transform="translate(-25.517188 663.306967) scale(0.22 -0.22)">
       <use xlink:href="#ArialMT-47"/>
       <use xlink:href="#ArialMT-41" x="77.783203"/>
       <use xlink:href="#ArialMT-4d" x="144.482422"/>
       <use xlink:href="#ArialMT-54" x="227.783203"/>
       <use xlink:href="#ArialMT-5f" x="288.867188"/>
       <use xlink:href="#ArialMT-32" x="344.482422"/>
      </g>
     </g>
    </g>
    <g id="ytick_27">
     <g id="line2d_27">
      <path d="M 72 676.154483 
L 518.4 676.154483 
" clip-path="url(#p05ce0ee9d2)" style="fill: none; stroke: #cccccc; stroke-linecap: round"/>
     </g>
     <g id="text_33">
      <!-- LC3B -->
      <g style="fill: #262626" transform="translate(7.469062 684.028077) scale(0.22 -0.22)">
       <use xlink:href="#ArialMT-4c"/>
       <use xlink:href="#ArialMT-43" x="55.615234"/>
       <use xlink:href="#ArialMT-33" x="127.832031"/>
       <use xlink:href="#ArialMT-42" x="183.447266"/>
      </g>
     </g>
    </g>
    <g id="ytick_28">
     <g id="line2d_28">
      <path d="M 72 697.009655 
L 518.4 697.009655 
" clip-path="url(#p05ce0ee9d2)" style="fill: none; stroke: #cccccc; stroke-linecap: round"/>
     </g>
     <g id="text_34">
      <!-- APP -->
      <g style="fill: #262626" transform="translate(18.475938 704.883249) scale(0.22 -0.22)">
       <use xlink:href="#ArialMT-41"/>
       <use xlink:href="#ArialMT-50" x="66.699219"/>
       <use xlink:href="#ArialMT-50" x="133.398438"/>
      </g>
     </g>
    </g>
    <g id="ytick_29">
     <g id="line2d_29">
      <path d="M 72 717.864828 
L 518.4 717.864828 
" clip-path="url(#p05ce0ee9d2)" style="fill: none; stroke: #cccccc; stroke-linecap: round"/>
     </g>
     <g id="text_35">
      <!-- K48-Ubiquitin -->
      <g style="fill: #262626" transform="translate(-69.56875 725.771078) scale(0.22 -0.22)">
       <defs>
        <path id="ArialMT-71" d="M 2538 -1272 
L 2538 353 
Q 2406 169 2170 47 
Q 1934 -75 1669 -75 
Q 1078 -75 651 397 
Q 225 869 225 1691 
Q 225 2191 398 2587 
Q 572 2984 901 3189 
Q 1231 3394 1625 3394 
Q 2241 3394 2594 2875 
L 2594 3319 
L 3100 3319 
L 3100 -1272 
L 2538 -1272 
z
M 803 1669 
Q 803 1028 1072 708 
Q 1341 388 1716 388 
Q 2075 388 2334 692 
Q 2594 997 2594 1619 
Q 2594 2281 2320 2615 
Q 2047 2950 1678 2950 
Q 1313 2950 1058 2639 
Q 803 2328 803 1669 
z
" transform="scale(0.015625)"/>
       </defs>
       <use xlink:href="#ArialMT-4b"/>
       <use xlink:href="#ArialMT-34" x="66.699219"/>
       <use xlink:href="#ArialMT-38" x="122.314453"/>
       <use xlink:href="#ArialMT-2d" x="177.929688"/>
       <use xlink:href="#ArialMT-55" x="211.230469"/>
       <use xlink:href="#ArialMT-62" x="283.447266"/>
       <use xlink:href="#ArialMT-69" x="339.0625"/>
       <use xlink:href="#ArialMT-71" x="361.279297"/>
       <use xlink:href="#ArialMT-75" x="416.894531"/>
       <use xlink:href="#ArialMT-69" x="472.509766"/>
       <use xlink:href="#ArialMT-74" x="494.726562"/>
       <use xlink:href="#ArialMT-69" x="522.509766"/>
       <use xlink:href="#ArialMT-6e" x="544.726562"/>
      </g>
     </g>
    </g>
    <g id="ytick_30">
     <g id="line2d_30">
      <path d="M 72 738.72 
L 518.4 738.72 
" clip-path="url(#p05ce0ee9d2)" style="fill: none; stroke: #cccccc; stroke-linecap: round"/>
     </g>
     <g id="text_36">
      <!-- SLC6A8 -->
      <g style="fill: #262626" transform="translate(-19.439688 746.593594) scale(0.22 -0.22)">
       <use xlink:href="#ArialMT-53"/>
       <use xlink:href="#ArialMT-4c" x="66.699219"/>
       <use xlink:href="#ArialMT-43" x="122.314453"/>
       <use xlink:href="#ArialMT-36" x="194.53125"/>
       <use xlink:href="#ArialMT-41" x="250.146484"/>
       <use xlink:href="#ArialMT-38" x="316.845703"/>
      </g>
     </g>
    </g>
   </g>
   <g id="PathCollection_1">
    <path d="M 312.835843 138.392136 
C 314.021867 138.392136 315.159474 137.920923 315.99812 137.082278 
C 316.836766 136.243632 317.307979 135.106024 317.307979 133.92 
C 317.307979 132.733976 316.836766 131.596368 315.99812 130.757722 
C 315.159474 129.919077 314.021867 129.447864 312.835843 129.447864 
C 311.649818 129.447864 310.512211 129.919077 309.673565 130.757722 
C 308.834919 131.596368 308.363707 132.733976 308.363707 133.92 
C 308.363707 135.106024 308.834919 136.243632 309.673565 137.082278 
C 310.512211 137.920923 311.649818 138.392136 312.835843 138.392136 
z
" clip-path="url(#p05ce0ee9d2)" style="fill: #0b244a; stroke: #ffffff; stroke-width: 0.715542"/>
    <path d="M 377.9528 159.247308 
C 379.138825 159.247308 380.276432 158.776096 381.115078 157.93745 
C 381.953724 157.098804 382.424936 155.961197 382.424936 154.775172 
C 382.424936 153.589148 381.953724 152.451541 381.115078 151.612895 
C 380.276432 150.774249 379.138825 150.303036 377.9528 150.303036 
C 376.766776 150.303036 375.629168 150.774249 374.790523 151.612895 
C 373.951877 152.451541 373.480664 153.589148 373.480664 154.775172 
C 373.480664 155.961197 373.951877 157.098804 374.790523 157.93745 
C 375.629168 158.776096 376.766776 159.247308 377.9528 159.247308 
z
" clip-path="url(#p05ce0ee9d2)" style="fill: #0b244a; stroke: #ffffff; stroke-width: 0.715542"/>
    <path d="M 361.28596 180.102481 
C 362.471984 180.102481 363.609592 179.631268 364.448238 178.792622 
C 365.286883 177.953977 365.758096 176.816369 365.758096 175.630345 
C 365.758096 174.444321 365.286883 173.306713 364.448238 172.468067 
C 363.609592 171.629421 362.471984 171.158209 361.28596 171.158209 
C 360.099936 171.158209 358.962328 171.629421 358.123682 172.468067 
C 357.285036 173.306713 356.813824 174.444321 356.813824 175.630345 
C 356.813824 176.816369 357.285036 177.953977 358.123682 178.792622 
C 358.962328 179.631268 360.099936 180.102481 361.28596 180.102481 
z
" clip-path="url(#p05ce0ee9d2)" style="fill: #0b244a; stroke: #ffffff; stroke-width: 0.715542"/>
    <path d="M 341.518312 200.957653 
C 342.704336 200.957653 343.841944 200.486441 344.68059 199.647795 
C 345.519236 198.809149 345.990448 197.671542 345.990448 196.485517 
C 345.990448 195.299493 345.519236 194.161885 344.68059 193.32324 
C 343.841944 192.484594 342.704336 192.013381 341.518312 192.013381 
C 340.332288 192.013381 339.19468 192.484594 338.356034 193.32324 
C 337.517389 194.161885 337.046176 195.299493 337.046176 196.485517 
C 337.046176 197.671542 337.517389 198.809149 338.356034 199.647795 
C 339.19468 200.486441 340.332288 200.957653 341.518312 200.957653 
z
" clip-path="url(#p05ce0ee9d2)" style="fill: #0b244a; stroke: #ffffff; stroke-width: 0.715542"/>
    <path d="M 301.207815 221.812826 
C 302.393839 221.812826 303.531446 221.341613 304.370092 220.502967 
C 305.208738 219.664321 305.67995 218.526714 305.67995 217.34069 
C 305.67995 216.154665 305.208738 215.017058 304.370092 214.178412 
C 303.531446 213.339766 302.393839 212.868554 301.207815 212.868554 
C 300.02179 212.868554 298.884183 213.339766 298.045537 214.178412 
C 297.206891 215.017058 296.735679 216.154665 296.735679 217.34069 
C 296.735679 218.526714 297.206891 219.664321 298.045537 220.502967 
C 298.884183 221.341613 300.02179 221.812826 301.207815 221.812826 
z
" clip-path="url(#p05ce0ee9d2)" style="fill: #0b244a; stroke: #ffffff; stroke-width: 0.715542"/>
    <path d="M 329.115082 242.667998 
C 330.301106 242.667998 331.438714 242.196786 332.27736 241.35814 
C 333.116006 240.519494 333.587218 239.381886 333.587218 238.195862 
C 333.587218 237.009838 333.116006 235.87223 332.27736 235.033584 
C 331.438714 234.194939 330.301106 233.723726 329.115082 233.723726 
C 327.929058 233.723726 326.79145 234.194939 325.952804 235.033584 
C 325.114159 235.87223 324.642946 237.009838 324.642946 238.195862 
C 324.642946 239.381886 325.114159 240.519494 325.952804 241.35814 
C 326.79145 242.196786 327.929058 242.667998 329.115082 242.667998 
z
" clip-path="url(#p05ce0ee9d2)" style="fill: #0b244a; stroke: #ffffff; stroke-width: 0.715542"/>
    <path d="M 434.542537 263.52317 
C 435.728561 263.52317 436.866169 263.051958 437.704815 262.213312 
C 438.543461 261.374666 439.014673 260.237059 439.014673 259.051034 
C 439.014673 257.86501 438.543461 256.727403 437.704815 255.888757 
C 436.866169 255.050111 435.728561 254.578899 434.542537 254.578899 
C 433.356513 254.578899 432.218905 255.050111 431.380259 255.888757 
C 430.541614 256.727403 430.070401 257.86501 430.070401 259.051034 
C 430.070401 260.237059 430.541614 261.374666 431.380259 262.213312 
C 432.218905 263.051958 433.356513 263.52317 434.542537 263.52317 
z
" clip-path="url(#p05ce0ee9d2)" style="fill: #0b244a; stroke: #ffffff; stroke-width: 0.715542"/>
    <path d="M 343.650117 284.378343 
C 344.836142 284.378343 345.973749 283.90713 346.812395 283.068485 
C 347.651041 282.229839 348.122253 281.092231 348.122253 279.906207 
C 348.122253 278.720183 347.651041 277.582575 346.812395 276.743929 
C 345.973749 275.905283 344.836142 275.434071 343.650117 275.434071 
C 342.464093 275.434071 341.326485 275.905283 340.48784 276.743929 
C 339.649194 277.582575 339.177981 278.720183 339.177981 279.906207 
C 339.177981 281.092231 339.649194 282.229839 340.48784 283.068485 
C 341.326485 283.90713 342.464093 284.378343 343.650117 284.378343 
z
" clip-path="url(#p05ce0ee9d2)" style="fill: #0b244a; stroke: #ffffff; stroke-width: 0.715542"/>
    <path d="M 337.448502 305.233515 
C 338.634527 305.233515 339.772134 304.762303 340.61078 303.923657 
C 341.449426 303.085011 341.920638 301.947404 341.920638 300.761379 
C 341.920638 299.575355 341.449426 298.437747 340.61078 297.599102 
C 339.772134 296.760456 338.634527 296.289243 337.448502 296.289243 
C 336.262478 296.289243 335.12487 296.760456 334.286225 297.599102 
C 333.447579 298.437747 332.976366 299.575355 332.976366 300.761379 
C 332.976366 301.947404 333.447579 303.085011 334.286225 303.923657 
C 335.12487 304.762303 336.262478 305.233515 337.448502 305.233515 
z
" clip-path="url(#p05ce0ee9d2)" style="fill: #0b244a; stroke: #ffffff; stroke-width: 0.715542"/>
    <path d="M 316.324251 326.088688 
C 317.510275 326.088688 318.647883 325.617475 319.486529 324.778829 
C 320.325175 323.940184 320.796387 322.802576 320.796387 321.616552 
C 320.796387 320.430527 320.325175 319.29292 319.486529 318.454274 
C 318.647883 317.615628 317.510275 317.144416 316.324251 317.144416 
C 315.138227 317.144416 314.000619 317.615628 313.161973 318.454274 
C 312.323328 319.29292 311.852115 320.430527 311.852115 321.616552 
C 311.852115 322.802576 312.323328 323.940184 313.161973 324.778829 
C 314.000619 325.617475 315.138227 326.088688 316.324251 326.088688 
z
" clip-path="url(#p05ce0ee9d2)" style="fill: #0b244a; stroke: #ffffff; stroke-width: 0.715542"/>
    <path d="M 199.268768 346.94386 
C 200.454792 346.94386 201.5924 346.472648 202.431046 345.634002 
C 203.269691 344.795356 203.740904 343.657748 203.740904 342.471724 
C 203.740904 341.2857 203.269691 340.148092 202.431046 339.309446 
C 201.5924 338.470801 200.454792 337.999588 199.268768 337.999588 
C 198.082744 337.999588 196.945136 338.470801 196.10649 339.309446 
C 195.267844 340.148092 194.796632 341.2857 194.796632 342.471724 
C 194.796632 343.657748 195.267844 344.795356 196.10649 345.634002 
C 196.945136 346.472648 198.082744 346.94386 199.268768 346.94386 
z
" clip-path="url(#p05ce0ee9d2)" style="fill: #0b244a; stroke: #ffffff; stroke-width: 0.715542"/>
    <path d="M 92.290909 367.799033 
C 93.476933 367.799033 94.614541 367.32782 95.453187 366.489174 
C 96.291833 365.650528 96.763045 364.512921 96.763045 363.326897 
C 96.763045 362.140872 96.291833 361.003265 95.453187 360.164619 
C 94.614541 359.325973 93.476933 358.854761 92.290909 358.854761 
C 91.104885 358.854761 89.967277 359.325973 89.128631 360.164619 
C 88.289986 361.003265 87.818773 362.140872 87.818773 363.326897 
C 87.818773 364.512921 88.289986 365.650528 89.128631 366.489174 
C 89.967277 367.32782 91.104885 367.799033 92.290909 367.799033 
z
" clip-path="url(#p05ce0ee9d2)" style="fill: #0b244a; stroke: #ffffff; stroke-width: 0.715542"/>
    <path d="M 163.997083 388.654205 
C 165.183107 388.654205 166.320714 388.182992 167.15936 387.344347 
C 167.998006 386.505701 168.469219 385.368093 168.469219 384.182069 
C 168.469219 382.996045 167.998006 381.858437 167.15936 381.019791 
C 166.320714 380.181145 165.183107 379.709933 163.997083 379.709933 
C 162.811058 379.709933 161.673451 380.181145 160.834805 381.019791 
C 159.996159 381.858437 159.524947 382.996045 159.524947 384.182069 
C 159.524947 385.368093 159.996159 386.505701 160.834805 387.344347 
C 161.673451 388.182992 162.811058 388.654205 163.997083 388.654205 
z
" clip-path="url(#p05ce0ee9d2)" style="fill: #0b244a; stroke: #ffffff; stroke-width: 0.715542"/>
    <path d="M 205.857984 409.509377 
C 207.044008 409.509377 208.181616 409.038165 209.020262 408.199519 
C 209.858907 407.360873 210.33012 406.223266 210.33012 405.037241 
C 210.33012 403.851217 209.858907 402.71361 209.020262 401.874964 
C 208.181616 401.036318 207.044008 400.565105 205.857984 400.565105 
C 204.67196 400.565105 203.534352 401.036318 202.695706 401.874964 
C 201.85706 402.71361 201.385848 403.851217 201.385848 405.037241 
C 201.385848 406.223266 201.85706 407.360873 202.695706 408.199519 
C 203.534352 409.038165 204.67196 409.509377 205.857984 409.509377 
z
" clip-path="url(#p05ce0ee9d2)" style="fill: #0b244a; stroke: #ffffff; stroke-width: 0.715542"/>
    <path d="M 498.109091 430.36455 
C 499.295115 430.36455 500.432723 429.893337 501.271369 429.054691 
C 502.110014 428.216046 502.581227 427.078438 502.581227 425.892414 
C 502.581227 424.706389 502.110014 423.568782 501.271369 422.730136 
C 500.432723 421.89149 499.295115 421.420278 498.109091 421.420278 
C 496.923067 421.420278 495.785459 421.89149 494.946813 422.730136 
C 494.108167 423.568782 493.636955 424.706389 493.636955 425.892414 
C 493.636955 427.078438 494.108167 428.216046 494.946813 429.054691 
C 495.785459 429.893337 496.923067 430.36455 498.109091 430.36455 
z
" clip-path="url(#p05ce0ee9d2)" style="fill: #0b244a; stroke: #ffffff; stroke-width: 0.715542"/>
    <path d="M 298.494608 451.219722 
C 299.680632 451.219722 300.81824 450.74851 301.656886 449.909864 
C 302.495531 449.071218 302.966744 447.933611 302.966744 446.747586 
C 302.966744 445.561562 302.495531 444.423954 301.656886 443.585309 
C 300.81824 442.746663 299.680632 442.27545 298.494608 442.27545 
C 297.308584 442.27545 296.170976 442.746663 295.33233 443.585309 
C 294.493684 444.423954 294.022472 445.561562 294.022472 446.747586 
C 294.022472 447.933611 294.493684 449.071218 295.33233 449.909864 
C 296.170976 450.74851 297.308584 451.219722 298.494608 451.219722 
z
" clip-path="url(#p05ce0ee9d2)" style="fill: #0b244a; stroke: #ffffff; stroke-width: 0.715542"/>
    <path d="M 317.874655 472.074895 
C 319.060679 472.074895 320.198287 471.603682 321.036933 470.765036 
C 321.875578 469.92639 322.346791 468.788783 322.346791 467.602759 
C 322.346791 466.416734 321.875578 465.279127 321.036933 464.440481 
C 320.198287 463.601835 319.060679 463.130623 317.874655 463.130623 
C 316.688631 463.130623 315.551023 463.601835 314.712377 464.440481 
C 313.873731 465.279127 313.402519 466.416734 313.402519 467.602759 
C 313.402519 468.788783 313.873731 469.92639 314.712377 470.765036 
C 315.551023 471.603682 316.688631 472.074895 317.874655 472.074895 
z
" clip-path="url(#p05ce0ee9d2)" style="fill: #0b244a; stroke: #ffffff; stroke-width: 0.715542"/>
    <path d="M 475.240636 492.930067 
C 476.42666 492.930067 477.564267 492.458855 478.402913 491.620209 
C 479.241559 490.781563 479.712772 489.643955 479.712772 488.457931 
C 479.712772 487.271907 479.241559 486.134299 478.402913 485.295653 
C 477.564267 484.457008 476.42666 483.985795 475.240636 483.985795 
C 474.054611 483.985795 472.917004 484.457008 472.078358 485.295653 
C 471.239712 486.134299 470.7685 487.271907 470.7685 488.457931 
C 470.7685 489.643955 471.239712 490.781563 472.078358 491.620209 
C 472.917004 492.458855 474.054611 492.930067 475.240636 492.930067 
z
" clip-path="url(#p05ce0ee9d2)" style="fill: #0b244a; stroke: #ffffff; stroke-width: 0.715542"/>
    <path d="M 481.829852 513.785239 
C 483.015876 513.785239 484.153483 513.314027 484.992129 512.475381 
C 485.830775 511.636735 486.301987 510.499128 486.301987 509.313103 
C 486.301987 508.127079 485.830775 506.989472 484.992129 506.150826 
C 484.153483 505.31218 483.015876 504.840967 481.829852 504.840967 
C 480.643827 504.840967 479.50622 505.31218 478.667574 506.150826 
C 477.828928 506.989472 477.357716 508.127079 477.357716 509.313103 
C 477.357716 510.499128 477.828928 511.636735 478.667574 512.475381 
C 479.50622 513.314027 480.643827 513.785239 481.829852 513.785239 
z
" clip-path="url(#p05ce0ee9d2)" style="fill: #0b244a; stroke: #ffffff; stroke-width: 0.715542"/>
    <path d="M 284.928575 534.640412 
C 286.114599 534.640412 287.252207 534.169199 288.090853 533.330554 
C 288.929499 532.491908 289.400711 531.3543 289.400711 530.168276 
C 289.400711 528.982252 288.929499 527.844644 288.090853 527.005998 
C 287.252207 526.167352 286.114599 525.69614 284.928575 525.69614 
C 283.742551 525.69614 282.604943 526.167352 281.766297 527.005998 
C 280.927652 527.844644 280.456439 528.982252 280.456439 530.168276 
C 280.456439 531.3543 280.927652 532.491908 281.766297 533.330554 
C 282.604943 534.169199 283.742551 534.640412 284.928575 534.640412 
z
" clip-path="url(#p05ce0ee9d2)" style="fill: #0b244a; stroke: #ffffff; stroke-width: 0.715542"/>
    <path d="M 353.921542 555.495584 
C 355.107566 555.495584 356.245174 555.024372 357.08382 554.185726 
C 357.922466 553.34708 358.393678 552.209473 358.393678 551.023448 
C 358.393678 549.837424 357.922466 548.699816 357.08382 547.861171 
C 356.245174 547.022525 355.107566 546.551312 353.921542 546.551312 
C 352.735518 546.551312 351.59791 547.022525 350.759264 547.861171 
C 349.920619 548.699816 349.449406 549.837424 349.449406 551.023448 
C 349.449406 552.209473 349.920619 553.34708 350.759264 554.185726 
C 351.59791 555.024372 352.735518 555.495584 353.921542 555.495584 
z
" clip-path="url(#p05ce0ee9d2)" style="fill: #0b244a; stroke: #ffffff; stroke-width: 0.715542"/>
    <path d="M 405.084866 576.350757 
C 406.27089 576.350757 407.408498 575.879544 408.247144 575.040898 
C 409.085789 574.202253 409.557002 573.064645 409.557002 571.878621 
C 409.557002 570.692596 409.085789 569.554989 408.247144 568.716343 
C 407.408498 567.877697 406.27089 567.406485 405.084866 567.406485 
C 403.898842 567.406485 402.761234 567.877697 401.922588 568.716343 
C 401.083942 569.554989 400.61273 570.692596 400.61273 571.878621 
C 400.61273 573.064645 401.083942 574.202253 401.922588 575.040898 
C 402.761234 575.879544 403.898842 576.350757 405.084866 576.350757 
z
" clip-path="url(#p05ce0ee9d2)" style="fill: #0b244a; stroke: #ffffff; stroke-width: 0.715542"/>
    <path d="M 316.518052 597.205929 
C 317.704076 597.205929 318.841683 596.734717 319.680329 595.896071 
C 320.518975 595.057425 320.990188 593.919817 320.990188 592.733793 
C 320.990188 591.547769 320.518975 590.410161 319.680329 589.571515 
C 318.841683 588.73287 317.704076 588.261657 316.518052 588.261657 
C 315.332027 588.261657 314.19442 588.73287 313.355774 589.571515 
C 312.517128 590.410161 312.045916 591.547769 312.045916 592.733793 
C 312.045916 593.919817 312.517128 595.057425 313.355774 595.896071 
C 314.19442 596.734717 315.332027 597.205929 316.518052 597.205929 
z
" clip-path="url(#p05ce0ee9d2)" style="fill: #0b244a; stroke: #ffffff; stroke-width: 0.715542"/>
    <path d="M 217.679812 618.061101 
C 218.865837 618.061101 220.003444 617.589889 220.84209 616.751243 
C 221.680736 615.912597 222.151948 614.77499 222.151948 613.588966 
C 222.151948 612.402941 221.680736 611.265334 220.84209 610.426688 
C 220.003444 609.588042 218.865837 609.11683 217.679812 609.11683 
C 216.493788 609.11683 215.356181 609.588042 214.517535 610.426688 
C 213.678889 611.265334 213.207676 612.402941 213.207676 613.588966 
C 213.207676 614.77499 213.678889 615.912597 214.517535 616.751243 
C 215.356181 617.589889 216.493788 618.061101 217.679812 618.061101 
z
" clip-path="url(#p05ce0ee9d2)" style="fill: #0b244a; stroke: #ffffff; stroke-width: 0.715542"/>
    <path d="M 179.50112 638.916274 
C 180.687144 638.916274 181.824752 638.445061 182.663398 637.606416 
C 183.502044 636.76777 183.973256 635.630162 183.973256 634.444138 
C 183.973256 633.258114 183.502044 632.120506 182.663398 631.28186 
C 181.824752 630.443214 180.687144 629.972002 179.50112 629.972002 
C 178.315096 629.972002 177.177488 630.443214 176.338842 631.28186 
C 175.500197 632.120506 175.028984 633.258114 175.028984 634.444138 
C 175.028984 635.630162 175.500197 636.76777 176.338842 637.606416 
C 177.177488 638.445061 178.315096 638.916274 179.50112 638.916274 
z
" clip-path="url(#p05ce0ee9d2)" style="fill: #0b244a; stroke: #ffffff; stroke-width: 0.715542"/>
    <path d="M 161.671477 659.771446 
C 162.857501 659.771446 163.995109 659.300234 164.833755 658.461588 
C 165.6724 657.622942 166.143613 656.485335 166.143613 655.29931 
C 166.143613 654.113286 165.6724 652.975679 164.833755 652.137033 
C 163.995109 651.298387 162.857501 650.827174 161.671477 650.827174 
C 160.485453 650.827174 159.347845 651.298387 158.509199 652.137033 
C 157.670553 652.975679 157.199341 654.113286 157.199341 655.29931 
C 157.199341 656.485335 157.670553 657.622942 158.509199 658.461588 
C 159.347845 659.300234 160.485453 659.771446 161.671477 659.771446 
z
" clip-path="url(#p05ce0ee9d2)" style="fill: #0b244a; stroke: #ffffff; stroke-width: 0.715542"/>
    <path d="M 349.657932 680.626619 
C 350.843956 680.626619 351.981564 680.155406 352.820209 679.31676 
C 353.658855 678.478115 354.130068 677.340507 354.130068 676.154483 
C 354.130068 674.968458 353.658855 673.830851 352.820209 672.992205 
C 351.981564 672.153559 350.843956 671.682347 349.657932 671.682347 
C 348.471907 671.682347 347.3343 672.153559 346.495654 672.992205 
C 345.657008 673.830851 345.185796 674.968458 345.185796 676.154483 
C 345.185796 677.340507 345.657008 678.478115 346.495654 679.31676 
C 347.3343 680.155406 348.471907 680.626619 349.657932 680.626619 
z
" clip-path="url(#p05ce0ee9d2)" style="fill: #0b244a; stroke: #ffffff; stroke-width: 0.715542"/>
    <path d="M 324.851472 701.481791 
C 326.037496 701.481791 327.175104 701.010579 328.013749 700.171933 
C 328.852395 699.333287 329.323608 698.195679 329.323608 697.009655 
C 329.323608 695.823631 328.852395 694.686023 328.013749 693.847378 
C 327.175104 693.008732 326.037496 692.537519 324.851472 692.537519 
C 323.665447 692.537519 322.52784 693.008732 321.689194 693.847378 
C 320.850548 694.686023 320.379336 695.823631 320.379336 697.009655 
C 320.379336 698.195679 320.850548 699.333287 321.689194 700.171933 
C 322.52784 701.010579 323.665447 701.481791 324.851472 701.481791 
z
" clip-path="url(#p05ce0ee9d2)" style="fill: #0b244a; stroke: #ffffff; stroke-width: 0.715542"/>
    <path d="M 238.416463 722.336964 
C 239.602487 722.336964 240.740094 721.865751 241.57874 721.027105 
C 242.417386 720.188459 242.888599 719.050852 242.888599 717.864828 
C 242.888599 716.678803 242.417386 715.541196 241.57874 714.70255 
C 240.740094 713.863904 239.602487 713.392692 238.416463 713.392692 
C 237.230438 713.392692 236.092831 713.863904 235.254185 714.70255 
C 234.415539 715.541196 233.944327 716.678803 233.944327 717.864828 
C 233.944327 719.050852 234.415539 720.188459 235.254185 721.027105 
C 236.092831 721.865751 237.230438 722.336964 238.416463 722.336964 
z
" clip-path="url(#p05ce0ee9d2)" style="fill: #0b244a; stroke: #ffffff; stroke-width: 0.715542"/>
    <path d="M 406.63527 743.192136 
C 407.821294 743.192136 408.958901 742.720923 409.797547 741.882278 
C 410.636193 741.043632 411.107406 739.906024 411.107406 738.72 
C 411.107406 737.533976 410.636193 736.396368 409.797547 735.557722 
C 408.958901 734.719077 407.821294 734.247864 406.63527 734.247864 
C 405.449245 734.247864 404.311638 734.719077 403.472992 735.557722 
C 402.634346 736.396368 402.163134 737.533976 402.163134 738.72 
C 402.163134 739.906024 402.634346 741.043632 403.472992 741.882278 
C 404.311638 742.720923 405.449245 743.192136 406.63527 743.192136 
z
" clip-path="url(#p05ce0ee9d2)" style="fill: #0b244a; stroke: #ffffff; stroke-width: 0.715542"/>
   </g>
   <g id="PathCollection_2"/>
   <g id="PathCollection_3"/>
   <g id="PathCollection_4"/>
   <g id="PathCollection_5"/>
   <g id="PathCollection_6"/>
   <g id="PathCollection_7"/>
   <g id="line2d_31">
    <path d="M 92.290909 768.96 
L 92.290909 103.68 
" clip-path="url(#p05ce0ee9d2)" style="fill: none; stroke-dasharray: 5.55,2.4; stroke-dashoffset: 0; stroke: #1a1a1a; stroke-width: 1.5"/>
   </g>
   <g id="line2d_32">
    <path d="M 284.928575 768.96 
L 284.928575 103.68 
" clip-path="url(#p05ce0ee9d2)" style="fill: none; stroke-dasharray: 1.5,2.475; stroke-dashoffset: 0; stroke: #1a1a1a; stroke-width: 1.5"/>
   </g>
   <g id="patch_3">
    <path d="M 72 768.96 
L 72 103.68 
" style="fill: none; stroke: #262626; stroke-width: 1.25; stroke-linejoin: miter; stroke-linecap: square"/>
   </g>
   <g id="patch_4">
    <path d="M 518.4 768.96 
L 518.4 103.68 
" style="fill: none; stroke: #262626; stroke-width: 1.25; stroke-linejoin: miter; stroke-linecap: square"/>
   </g>
   <g id="patch_5">
    <path d="M 72 768.96 
L 518.4 768.96 
" style="fill: none; stroke: #262626; stroke-width: 1.25; stroke-linejoin: miter; stroke-linecap: square"/>
   </g>
   <g id="patch_6">
    <path d="M 72 103.68 
L 518.4 103.68 
" style="fill: none; stroke: #262626; stroke-width: 1.25; stroke-linejoin: miter; stroke-linecap: square"/>
   </g>
  </g>
 </g>
 <defs>
  <clipPath id="p05ce0ee9d2">
   <rect x="72" y="103.68" width="446.4" height="665.28"/>
  </clipPath>
 </defs>
</svg>
